STARTFONT 2.1
FONT --Swiss-Regular-R-Medium--14-140-120-72-P-134-IBM-UGL
SIZE 14 120 72
FONTBOUNDINGBOX 23 18 0 -3
METRICSSET 2
STARTPROPERTIES 27
FONT_ASCENT 11
FONT_DESCENT 3
PIXEL_SIZE 14
RESOLUTION_X 120
RESOLUTION_Y 72
POINT_SIZE 140
FACE_NAME "Helv"
FOUNDRY ""
FAMILY_NAME "Swiss"
WEIGHT_NAME "Regular"
RELATIVE_WEIGHT 50
SLANT "R"
SPACING "P"
SETWIDTH_NAME "Medium"
RELATIVE_SETWIDTH 50
ADD_STYLE_NAME ""
AVERAGE_WIDTH 134
UNDERLINE_POSITION 2
SUPERSCRIPT_SIZE 11
SUBSCRIPT_SIZE 11
SUPERSCRIPT_X 0
SUPERSCRIPT_Y 6
SUBSCRIPT_X 0
SUBSCRIPT_Y 2
DEFAULT_CHAR 32
CHARSET_REGISTRY "IBM"
CHARSET_ENCODING "UGL"
ENDPROPERTIES
CHARS 330
STARTCHAR smileface
ENCODING 1
SWIDTH 771 0
DWIDTH 18 0
BBX 16 11 1 0
VVECTOR 9 15
SWIDTH1 0 -1286
DWIDTH1 0 -18
BITMAP 
0FF0
300C
6006
CC33
C003
C003
D00B
CC33
63C6
300C
0FF0
ENDCHAR
STARTCHAR invsmileface
ENCODING 2
SWIDTH 771 0
DWIDTH 18 0
BBX 16 11 1 0
VVECTOR 9 15
SWIDTH1 0 -1286
DWIDTH1 0 -18
BITMAP 
0FF0
3FFC
7FFE
F3CF
FFFF
FFFF
EFF7
F7EF
781E
3FFC
0FF0
ENDCHAR
STARTCHAR heart
ENCODING 3
SWIDTH 729 0
DWIDTH 17 0
BBX 15 11 1 0
VVECTOR 9 15
SWIDTH1 0 -1286
DWIDTH1 0 -18
BITMAP 
3838
7C7C
FEFE
FFFE
7FFC
3FF8
1FF0
0FE0
07C0
0380
0100
ENDCHAR
STARTCHAR diamond
ENCODING 4
SWIDTH 771 0
DWIDTH 18 0
BBX 12 11 3 0
VVECTOR 9 15
SWIDTH1 0 -1286
DWIDTH1 0 -18
BITMAP 
0600
0F00
1F80
3FC0
7FE0
FFF0
7FE0
3FC0
1F80
0F00
0600
ENDCHAR
STARTCHAR club
ENCODING 5
SWIDTH 771 0
DWIDTH 18 0
BBX 14 11 2 0
VVECTOR 9 15
SWIDTH1 0 -1286
DWIDTH1 0 -18
BITMAP 
0300
0780
0FC0
0FC0
7FF8
FFFC
FFFC
FCFC
7338
0780
1FE0
ENDCHAR
STARTCHAR spade
ENCODING 6
SWIDTH 771 0
DWIDTH 18 0
BBX 14 11 2 0
VVECTOR 9 15
SWIDTH1 0 -1286
DWIDTH1 0 -18
BITMAP 
0300
0780
0FC0
1FE0
7FF8
FFFC
FFFC
FCFC
7338
0780
1FE0
ENDCHAR
STARTCHAR bullet
ENCODING 7
SWIDTH 729 0
DWIDTH 17 0
BBX 7 5 5 3
VVECTOR 9 15
SWIDTH1 0 -1286
DWIDTH1 0 -18
BITMAP 
7C
FE
FE
FE
7C
ENDCHAR
STARTCHAR invbullet
ENCODING 8
SWIDTH 729 0
DWIDTH 17 0
BBX 17 11 0 0
VVECTOR 9 15
SWIDTH1 0 -1286
DWIDTH1 0 -18
BITMAP 
FFFF80
FFFF80
FFFF80
FC1F80
F80F80
F80F80
F80F80
FC1F80
FFFF80
FFFF80
FFFF80
ENDCHAR
STARTCHAR circle
ENCODING 9
SWIDTH 729 0
DWIDTH 17 0
BBX 13 9 2 1
VVECTOR 9 15
SWIDTH1 0 -1286
DWIDTH1 0 -18
BITMAP 
0F80
3060
6030
C018
C018
C018
6030
3060
0F80
ENDCHAR
STARTCHAR invcircle
ENCODING 10
SWIDTH 729 0
DWIDTH 17 0
BBX 17 11 0 0
VVECTOR 9 15
SWIDTH1 0 -1286
DWIDTH1 0 -18
BITMAP 
FFFF80
FC1F80
F3E780
E7F380
CFF980
CFF980
CFF980
E7F380
F3E780
FC1F80
FFFF80
ENDCHAR
STARTCHAR male
ENCODING 11
SWIDTH 771 0
DWIDTH 18 0
BBX 14 10 2 1
VVECTOR 9 15
SWIDTH1 0 -1286
DWIDTH1 0 -18
BITMAP 
007C
001C
006C
1EC4
6180
C0C0
C0C0
C0C0
6180
1E00
ENDCHAR
STARTCHAR female
ENCODING 12
SWIDTH 686 0
DWIDTH 16 0
BBX 10 12 3 -1
VVECTOR 8 15
SWIDTH1 0 -1286
DWIDTH1 0 -18
BITMAP 
1E00
6180
C0C0
C0C0
C0C0
6180
1E00
0C00
0C00
3F00
0C00
0C00
ENDCHAR
STARTCHAR musicalnote
ENCODING 13
SWIDTH 771 0
DWIDTH 18 0
BBX 9 11 4 0
VVECTOR 8 15
SWIDTH1 0 -1286
DWIDTH1 0 -18
BITMAP 
0400
0600
0600
0700
0580
0480
0480
0480
7D00
F800
7000
ENDCHAR
STARTCHAR musicalnotedbl
ENCODING 14
SWIDTH 771 0
DWIDTH 18 0
BBX 15 11 1 0
VVECTOR 8 15
SWIDTH1 0 -1286
DWIDTH1 0 -18
BITMAP 
007E
07C2
0402
043E
07E2
0402
0402
0402
7C3E
F87C
7038
ENDCHAR
STARTCHAR sun
ENCODING 15
SWIDTH 771 0
DWIDTH 18 0
BBX 18 11 0 0
VVECTOR 9 15
SWIDTH1 0 -1286
DWIDTH1 0 -18
BITMAP 
00C000
60C180
3BF700
0C0C00
180600
F807C0
180600
0C0C00
3BF700
60C180
00C000
ENDCHAR
STARTCHAR triagrt
ENCODING 16
SWIDTH 943 0
DWIDTH 22 0
BBX 16 8 3 1
VVECTOR 11 15
SWIDTH1 0 -1286
DWIDTH1 0 -18
BITMAP 
F000
FF00
FFF0
FFFF
FFFF
FFF0
FF00
F000
ENDCHAR
STARTCHAR triaglf
ENCODING 17
SWIDTH 943 0
DWIDTH 22 0
BBX 16 8 3 1
VVECTOR 11 15
SWIDTH1 0 -1286
DWIDTH1 0 -18
BITMAP 
000F
00FF
0FFF
FFFF
FFFF
0FFF
00FF
000F
ENDCHAR
STARTCHAR arrowupdn
ENCODING 18
SWIDTH 771 0
DWIDTH 18 0
BBX 6 11 6 0
VVECTOR 9 15
SWIDTH1 0 -1286
DWIDTH1 0 -18
BITMAP 
30
30
78
B4
30
30
30
B4
78
30
30
ENDCHAR
STARTCHAR exclamdbl
ENCODING 19
SWIDTH 471 0
DWIDTH 11 0
BBX 7 11 2 0
VVECTOR 6 15
SWIDTH1 0 -1286
DWIDTH1 0 -18
BITMAP 
C6
C6
C6
C6
C6
C6
C6
C6
00
C6
C6
ENDCHAR
STARTCHAR char14
ENCODING 20
SWIDTH 514 0
DWIDTH 12 0
BBX 10 12 1 -1
VVECTOR 6 15
SWIDTH1 0 -1286
DWIDTH1 0 -18
BITMAP 
7FC0
F980
F980
F980
7980
1980
1980
1980
1980
1980
1980
1980
ENDCHAR
STARTCHAR char15
ENCODING 21
SWIDTH 514 0
DWIDTH 12 0
BBX 10 12 1 -1
VVECTOR 6 15
SWIDTH1 0 -1286
DWIDTH1 0 -18
BITMAP 
3F00
6180
6000
3C00
C780
C0C0
C0C0
78C0
0F00
0180
6180
3F00
ENDCHAR
STARTCHAR filledrect
ENCODING 22
SWIDTH 729 0
DWIDTH 17 0
BBX 15 5 1 3
VVECTOR 9 15
SWIDTH1 0 -1286
DWIDTH1 0 -18
BITMAP 
FFFE
FFFE
FFFE
FFFE
FFFE
ENDCHAR
STARTCHAR arrowupdnbse
ENCODING 23
SWIDTH 771 0
DWIDTH 18 0
BBX 6 13 6 -2
VVECTOR 9 15
SWIDTH1 0 -1286
DWIDTH1 0 -18
BITMAP 
30
30
78
B4
30
30
30
B4
78
30
30
00
FC
ENDCHAR
STARTCHAR arrowup
ENCODING 24
SWIDTH 771 0
DWIDTH 18 0
BBX 6 11 6 0
VVECTOR 9 15
SWIDTH1 0 -1286
DWIDTH1 0 -18
BITMAP 
30
30
78
FC
B4
30
30
30
30
30
30
ENDCHAR
STARTCHAR arrowdown
ENCODING 25
SWIDTH 771 0
DWIDTH 18 0
BBX 6 11 6 0
VVECTOR 9 15
SWIDTH1 0 -1286
DWIDTH1 0 -18
BITMAP 
30
30
30
30
30
30
B4
FC
78
30
30
ENDCHAR
STARTCHAR arrowright
ENCODING 26
SWIDTH 771 0
DWIDTH 18 0
BBX 15 5 2 2
VVECTOR 10 15
SWIDTH1 0 -1286
DWIDTH1 0 -18
BITMAP 
0030
0018
FFFE
0018
0030
ENDCHAR
STARTCHAR arrowleft
ENCODING 27
SWIDTH 771 0
DWIDTH 18 0
BBX 15 5 1 2
VVECTOR 8 15
SWIDTH1 0 -1286
DWIDTH1 0 -18
BITMAP 
1800
3000
FFFE
3000
1800
ENDCHAR
STARTCHAR orthogonal
ENCODING 28
SWIDTH 557 0
DWIDTH 13 0
BBX 11 6 1 0
VVECTOR 7 15
SWIDTH1 0 -1286
DWIDTH1 0 -18
BITMAP 
C000
C000
C000
C000
C000
FFE0
ENDCHAR
STARTCHAR arrowboth
ENCODING 29
SWIDTH 814 0
DWIDTH 19 0
BBX 17 5 1 2
VVECTOR 10 15
SWIDTH1 0 -1286
DWIDTH1 0 -18
BITMAP 
180C00
300600
FFFF80
300600
180C00
ENDCHAR
STARTCHAR triagup
ENCODING 30
SWIDTH 729 0
DWIDTH 17 0
BBX 11 6 3 2
VVECTOR 9 15
SWIDTH1 0 -1286
DWIDTH1 0 -18
BITMAP 
0400
0E00
1F00
3F80
7FC0
FFE0
ENDCHAR
STARTCHAR triagdn
ENCODING 31
SWIDTH 729 0
DWIDTH 17 0
BBX 11 6 3 2
VVECTOR 9 15
SWIDTH1 0 -1286
DWIDTH1 0 -18
BITMAP 
FFE0
7FC0
3F80
1F00
0E00
0400
ENDCHAR
STARTCHAR space
ENCODING 32
SWIDTH 257 0
DWIDTH 6 0
BBX 0 0 6 15
VVECTOR 9 15
SWIDTH1 0 -1286
DWIDTH1 0 -18
BITMAP 
ENDCHAR
STARTCHAR exclam
ENCODING 33
SWIDTH 257 0
DWIDTH 6 0
BBX 2 11 2 0
VVECTOR 3 15
SWIDTH1 0 -1286
DWIDTH1 0 -18
BITMAP 
C0
C0
C0
C0
C0
C0
C0
C0
00
C0
C0
ENDCHAR
STARTCHAR quotedbl
ENCODING 34
SWIDTH 429 0
DWIDTH 10 0
BBX 6 4 2 7
VVECTOR 5 15
SWIDTH1 0 -1286
DWIDTH1 0 -18
BITMAP 
CC
CC
CC
CC
ENDCHAR
STARTCHAR numbersign
ENCODING 35
SWIDTH 771 0
DWIDTH 18 0
BBX 15 11 2 0
VVECTOR 10 15
SWIDTH1 0 -1286
DWIDTH1 0 -18
BITMAP 
0198
0110
0330
7FFE
0440
0CC0
FFFC
1980
1100
3300
3300
ENDCHAR
STARTCHAR dollar
ENCODING 36
SWIDTH 557 0
DWIDTH 13 0
BBX 11 12 1 -1
VVECTOR 7 15
SWIDTH1 0 -1286
DWIDTH1 0 -18
BITMAP 
0400
3F80
64C0
C460
6400
3E00
07C0
0460
C460
64C0
3F80
0400
ENDCHAR
STARTCHAR percent
ENCODING 37
SWIDTH 814 0
DWIDTH 19 0
BBX 17 11 1 0
VVECTOR 10 15
SWIDTH1 0 -1286
DWIDTH1 0 -18
BITMAP 
7C0600
C60C00
C61800
C63000
7C6000
01C000
031F00
063180
0C3180
183180
301F00
ENDCHAR
STARTCHAR ampersand
ENCODING 38
SWIDTH 686 0
DWIDTH 16 0
BBX 14 11 1 0
VVECTOR 8 15
SWIDTH1 0 -1286
DWIDTH1 0 -18
BITMAP 
1F80
30C0
30C0
1980
1E00
7318
C190
C0D0
C070
E0D8
3F8C
ENDCHAR
STARTCHAR quotesingle
ENCODING 39
SWIDTH 257 0
DWIDTH 6 0
BBX 2 4 2 7
VVECTOR 3 15
SWIDTH1 0 -1286
DWIDTH1 0 -18
BITMAP 
C0
C0
C0
C0
ENDCHAR
STARTCHAR parenleft
ENCODING 40
SWIDTH 343 0
DWIDTH 8 0
BBX 5 14 2 -3
VVECTOR 5 15
SWIDTH1 0 -1286
DWIDTH1 0 -18
BITMAP 
18
30
60
60
C0
C0
C0
C0
C0
C0
60
60
30
18
ENDCHAR
STARTCHAR parenright
ENCODING 41
SWIDTH 343 0
DWIDTH 8 0
BBX 5 14 1 -3
VVECTOR 3 15
SWIDTH1 0 -1286
DWIDTH1 0 -18
BITMAP 
C0
60
30
30
18
18
18
18
18
18
30
30
60
C0
ENDCHAR
STARTCHAR asterisk
ENCODING 42
SWIDTH 514 0
DWIDTH 12 0
BBX 10 6 1 5
VVECTOR 6 15
SWIDTH1 0 -1286
DWIDTH1 0 -18
BITMAP 
0C00
0C00
EDC0
1E00
3300
6180
ENDCHAR
STARTCHAR plus
ENCODING 43
SWIDTH 600 0
DWIDTH 14 0
BBX 12 7 1 0
VVECTOR 7 15
SWIDTH1 0 -1286
DWIDTH1 0 -18
BITMAP 
0600
0600
0600
FFF0
0600
0600
0600
ENDCHAR
STARTCHAR comma
ENCODING 44
SWIDTH 257 0
DWIDTH 6 0
BBX 2 4 2 -2
VVECTOR 3 15
SWIDTH1 0 -1286
DWIDTH1 0 -18
BITMAP 
C0
C0
40
80
ENDCHAR
STARTCHAR hyphen
ENCODING 45
SWIDTH 300 0
DWIDTH 7 0
BBX 5 1 1 4
VVECTOR 4 15
SWIDTH1 0 -1286
DWIDTH1 0 -18
BITMAP 
F8
ENDCHAR
STARTCHAR period
ENCODING 46
SWIDTH 257 0
DWIDTH 6 0
BBX 2 2 2 0
VVECTOR 3 15
SWIDTH1 0 -1286
DWIDTH1 0 -18
BITMAP 
C0
C0
ENDCHAR
STARTCHAR slash
ENCODING 47
SWIDTH 300 0
DWIDTH 7 0
BBX 7 12 0 -1
VVECTOR 4 15
SWIDTH1 0 -1286
DWIDTH1 0 -18
BITMAP 
06
04
0C
08
18
10
10
30
20
60
40
C0
ENDCHAR
STARTCHAR zero
ENCODING 48
SWIDTH 557 0
DWIDTH 13 0
BBX 11 11 1 0
VVECTOR 7 15
SWIDTH1 0 -1286
DWIDTH1 0 -18
BITMAP 
3F80
60C0
C060
C060
C060
C060
C060
C060
C060
60C0
3F80
ENDCHAR
STARTCHAR one
ENCODING 49
SWIDTH 557 0
DWIDTH 13 0
BBX 6 11 3 0
VVECTOR 6 15
SWIDTH1 0 -1286
DWIDTH1 0 -18
BITMAP 
0C
1C
FC
0C
0C
0C
0C
0C
0C
0C
0C
ENDCHAR
STARTCHAR two
ENCODING 50
SWIDTH 557 0
DWIDTH 13 0
BBX 11 11 1 0
VVECTOR 7 15
SWIDTH1 0 -1286
DWIDTH1 0 -18
BITMAP 
3F80
60C0
C060
C060
00E0
0380
1E00
7000
C000
C000
FFE0
ENDCHAR
STARTCHAR three
ENCODING 51
SWIDTH 557 0
DWIDTH 13 0
BBX 11 11 1 0
VVECTOR 7 15
SWIDTH1 0 -1286
DWIDTH1 0 -18
BITMAP 
3F80
60C0
C060
0060
00C0
0F80
00C0
0060
C060
60C0
3F80
ENDCHAR
STARTCHAR four
ENCODING 52
SWIDTH 557 0
DWIDTH 13 0
BBX 11 11 1 0
VVECTOR 7 15
SWIDTH1 0 -1286
DWIDTH1 0 -18
BITMAP 
0380
0780
0D80
1980
3180
6180
C180
FFE0
0180
0180
0180
ENDCHAR
STARTCHAR five
ENCODING 53
SWIDTH 557 0
DWIDTH 13 0
BBX 11 11 1 0
VVECTOR 7 15
SWIDTH1 0 -1286
DWIDTH1 0 -18
BITMAP 
7FC0
6000
6000
6000
7F80
60C0
0060
0060
C060
60C0
3F80
ENDCHAR
STARTCHAR six
ENCODING 54
SWIDTH 557 0
DWIDTH 13 0
BBX 11 11 1 0
VVECTOR 7 15
SWIDTH1 0 -1286
DWIDTH1 0 -18
BITMAP 
3F80
60C0
C060
C000
DF80
E0C0
C060
C060
C060
60C0
3F80
ENDCHAR
STARTCHAR seven
ENCODING 55
SWIDTH 557 0
DWIDTH 13 0
BBX 11 11 1 0
VVECTOR 7 15
SWIDTH1 0 -1286
DWIDTH1 0 -18
BITMAP 
FFE0
00C0
0180
0300
0600
0C00
0C00
1800
1800
3000
3000
ENDCHAR
STARTCHAR eight
ENCODING 56
SWIDTH 557 0
DWIDTH 13 0
BBX 11 11 1 0
VVECTOR 7 15
SWIDTH1 0 -1286
DWIDTH1 0 -18
BITMAP 
3F80
60C0
C060
C060
60C0
3F80
60C0
C060
C060
60C0
3F80
ENDCHAR
STARTCHAR nine
ENCODING 57
SWIDTH 557 0
DWIDTH 13 0
BBX 11 11 1 0
VVECTOR 7 15
SWIDTH1 0 -1286
DWIDTH1 0 -18
BITMAP 
3F80
60C0
C060
C060
C060
60E0
3F60
0060
C060
60C0
3F80
ENDCHAR
STARTCHAR colon
ENCODING 58
SWIDTH 257 0
DWIDTH 6 0
BBX 2 7 2 0
VVECTOR 3 15
SWIDTH1 0 -1286
DWIDTH1 0 -18
BITMAP 
C0
C0
00
00
00
C0
C0
ENDCHAR
STARTCHAR semicolon
ENCODING 59
SWIDTH 257 0
DWIDTH 6 0
BBX 2 9 2 -2
VVECTOR 3 15
SWIDTH1 0 -1286
DWIDTH1 0 -18
BITMAP 
C0
C0
00
00
00
C0
C0
40
80
ENDCHAR
STARTCHAR less
ENCODING 60
SWIDTH 600 0
DWIDTH 14 0
BBX 12 7 1 0
VVECTOR 7 15
SWIDTH1 0 -1286
DWIDTH1 0 -18
BITMAP 
0070
03C0
1E00
F000
1E00
03C0
0070
ENDCHAR
STARTCHAR equal
ENCODING 61
SWIDTH 600 0
DWIDTH 14 0
BBX 12 4 1 2
VVECTOR 7 15
SWIDTH1 0 -1286
DWIDTH1 0 -18
BITMAP 
FFF0
0000
0000
FFF0
ENDCHAR
STARTCHAR greater
ENCODING 62
SWIDTH 600 0
DWIDTH 14 0
BBX 12 7 1 0
VVECTOR 7 15
SWIDTH1 0 -1286
DWIDTH1 0 -18
BITMAP 
E000
3C00
0780
00F0
0780
3C00
E000
ENDCHAR
STARTCHAR question
ENCODING 63
SWIDTH 514 0
DWIDTH 12 0
BBX 10 11 1 0
VVECTOR 6 15
SWIDTH1 0 -1286
DWIDTH1 0 -18
BITMAP 
3F00
E1C0
C0C0
C0C0
01C0
0700
0C00
0C00
0000
0C00
0C00
ENDCHAR
STARTCHAR at
ENCODING 64
SWIDTH 986 0
DWIDTH 23 0
BBX 20 12 2 -2
VVECTOR 13 15
SWIDTH1 0 -1286
DWIDTH1 0 -18
BITMAP 
03FE00
0C0180
300060
607B30
C18630
C30630
C60C30
C71C60
C3EFC0
600000
380300
07FC00
ENDCHAR
STARTCHAR A
ENCODING 65
SWIDTH 643 0
DWIDTH 15 0
BBX 13 11 1 0
VVECTOR 8 15
SWIDTH1 0 -1286
DWIDTH1 0 -18
BITMAP 
0700
0D80
0880
18C0
1040
3060
3FE0
6030
6030
C018
C018
ENDCHAR
STARTCHAR B
ENCODING 66
SWIDTH 643 0
DWIDTH 15 0
BBX 12 11 2 0
VVECTOR 9 15
SWIDTH1 0 -1286
DWIDTH1 0 -18
BITMAP 
FFC0
C060
C030
C030
C060
FFC0
C060
C030
C030
C060
FFC0
ENDCHAR
STARTCHAR C
ENCODING 67
SWIDTH 729 0
DWIDTH 17 0
BBX 15 11 1 0
VVECTOR 9 15
SWIDTH1 0 -1286
DWIDTH1 0 -18
BITMAP 
0FF0
381C
6006
C000
C000
C000
C000
C006
6006
381C
0FF0
ENDCHAR
STARTCHAR D
ENCODING 68
SWIDTH 729 0
DWIDTH 17 0
BBX 14 11 2 0
VVECTOR 10 15
SWIDTH1 0 -1286
DWIDTH1 0 -18
BITMAP 
FFC0
C070
C018
C00C
C00C
C00C
C00C
C00C
C018
C070
FFC0
ENDCHAR
STARTCHAR E
ENCODING 69
SWIDTH 643 0
DWIDTH 15 0
BBX 12 11 2 0
VVECTOR 9 15
SWIDTH1 0 -1286
DWIDTH1 0 -18
BITMAP 
FFF0
C000
C000
C000
C000
FFE0
C000
C000
C000
C000
FFF0
ENDCHAR
STARTCHAR F
ENCODING 70
SWIDTH 600 0
DWIDTH 14 0
BBX 11 11 2 0
VVECTOR 8 15
SWIDTH1 0 -1286
DWIDTH1 0 -18
BITMAP 
FFE0
C000
C000
C000
C000
FFC0
C000
C000
C000
C000
C000
ENDCHAR
STARTCHAR G
ENCODING 71
SWIDTH 771 0
DWIDTH 18 0
BBX 15 11 1 0
VVECTOR 8 15
SWIDTH1 0 -1286
DWIDTH1 0 -18
BITMAP 
0FF0
381C
6006
C000
C000
C000
C0FE
C006
6006
381E
0FE2
ENDCHAR
STARTCHAR H
ENCODING 72
SWIDTH 729 0
DWIDTH 17 0
BBX 13 11 2 0
VVECTOR 9 15
SWIDTH1 0 -1286
DWIDTH1 0 -18
BITMAP 
C018
C018
C018
C018
C018
FFF8
C018
C018
C018
C018
C018
ENDCHAR
STARTCHAR I
ENCODING 73
SWIDTH 257 0
DWIDTH 6 0
BBX 2 11 2 0
VVECTOR 3 15
SWIDTH1 0 -1286
DWIDTH1 0 -18
BITMAP 
C0
C0
C0
C0
C0
C0
C0
C0
C0
C0
C0
ENDCHAR
STARTCHAR J
ENCODING 74
SWIDTH 514 0
DWIDTH 12 0
BBX 10 11 0 0
VVECTOR 4 15
SWIDTH1 0 -1286
DWIDTH1 0 -18
BITMAP 
00C0
00C0
00C0
00C0
00C0
00C0
00C0
00C0
C0C0
6180
3F00
ENDCHAR
STARTCHAR K
ENCODING 75
SWIDTH 643 0
DWIDTH 15 0
BBX 12 11 2 0
VVECTOR 9 15
SWIDTH1 0 -1286
DWIDTH1 0 -18
BITMAP 
C030
C0E0
C180
C300
C600
DE00
F300
C180
C0C0
C060
C030
ENDCHAR
STARTCHAR L
ENCODING 76
SWIDTH 557 0
DWIDTH 13 0
BBX 11 11 2 0
VVECTOR 9 15
SWIDTH1 0 -1286
DWIDTH1 0 -18
BITMAP 
C000
C000
C000
C000
C000
C000
C000
C000
C000
C000
FFE0
ENDCHAR
STARTCHAR M
ENCODING 77
SWIDTH 857 0
DWIDTH 20 0
BBX 16 11 2 0
VVECTOR 10 15
SWIDTH1 0 -1286
DWIDTH1 0 -18
BITMAP 
E007
F00F
D81B
D81B
CC33
CC33
C663
C663
C3C3
C183
C183
ENDCHAR
STARTCHAR N
ENCODING 78
SWIDTH 729 0
DWIDTH 17 0
BBX 13 11 2 0
VVECTOR 9 15
SWIDTH1 0 -1286
DWIDTH1 0 -18
BITMAP 
E018
F018
D818
CC18
C618
C318
C198
C0D8
C078
C038
C018
ENDCHAR
STARTCHAR O
ENCODING 79
SWIDTH 771 0
DWIDTH 18 0
BBX 16 11 1 0
VVECTOR 9 15
SWIDTH1 0 -1286
DWIDTH1 0 -18
BITMAP 
0FF0
381C
6006
C003
C003
C003
C003
C003
6006
381C
0FF0
ENDCHAR
STARTCHAR P
ENCODING 80
SWIDTH 643 0
DWIDTH 15 0
BBX 12 11 2 0
VVECTOR 9 15
SWIDTH1 0 -1286
DWIDTH1 0 -18
BITMAP 
FFC0
C060
C030
C030
C060
FFC0
C000
C000
C000
C000
C000
ENDCHAR
STARTCHAR Q
ENCODING 81
SWIDTH 771 0
DWIDTH 18 0
BBX 16 12 1 -1
VVECTOR 9 15
SWIDTH1 0 -1286
DWIDTH1 0 -18
BITMAP 
0FF0
381C
6006
C003
C003
C003
C003
C003
6066
381C
0FFC
0006
ENDCHAR
STARTCHAR R
ENCODING 82
SWIDTH 686 0
DWIDTH 16 0
BBX 13 11 2 0
VVECTOR 9 15
SWIDTH1 0 -1286
DWIDTH1 0 -18
BITMAP 
FFE0
C030
C018
C018
C030
FFE0
C030
C018
C018
C018
C018
ENDCHAR
STARTCHAR S
ENCODING 83
SWIDTH 643 0
DWIDTH 15 0
BBX 13 11 1 0
VVECTOR 8 15
SWIDTH1 0 -1286
DWIDTH1 0 -18
BITMAP 
1FC0
7070
C018
C000
7800
0F80
00F0
0018
C018
7070
1FC0
ENDCHAR
STARTCHAR T
ENCODING 84
SWIDTH 514 0
DWIDTH 12 0
BBX 12 11 0 0
VVECTOR 6 15
SWIDTH1 0 -1286
DWIDTH1 0 -18
BITMAP 
FFF0
0600
0600
0600
0600
0600
0600
0600
0600
0600
0600
ENDCHAR
STARTCHAR U
ENCODING 85
SWIDTH 729 0
DWIDTH 17 0
BBX 13 11 2 0
VVECTOR 9 15
SWIDTH1 0 -1286
DWIDTH1 0 -18
BITMAP 
C018
C018
C018
C018
C018
C018
C018
C018
C018
7070
1FC0
ENDCHAR
STARTCHAR V
ENCODING 86
SWIDTH 643 0
DWIDTH 15 0
BBX 13 11 1 0
VVECTOR 8 15
SWIDTH1 0 -1286
DWIDTH1 0 -18
BITMAP 
C018
C018
6030
6030
3060
3060
18C0
18C0
0D80
0D80
0700
ENDCHAR
STARTCHAR W
ENCODING 87
SWIDTH 857 0
DWIDTH 20 0
BBX 20 11 0 0
VVECTOR 10 15
SWIDTH1 0 -1286
DWIDTH1 0 -18
BITMAP 
C06030
C06030
60F060
60F060
3198C0
3198C0
130C80
1B0D80
1A0580
0E0700
0C0300
ENDCHAR
STARTCHAR X
ENCODING 88
SWIDTH 600 0
DWIDTH 14 0
BBX 12 11 1 0
VVECTOR 7 15
SWIDTH1 0 -1286
DWIDTH1 0 -18
BITMAP 
C030
6060
30C0
1980
0F00
0600
0F00
1980
30C0
6060
C030
ENDCHAR
STARTCHAR Y
ENCODING 89
SWIDTH 686 0
DWIDTH 16 0
BBX 14 11 1 0
VVECTOR 8 15
SWIDTH1 0 -1286
DWIDTH1 0 -18
BITMAP 
C00C
6018
3030
1860
0CC0
0780
0300
0300
0300
0300
0300
ENDCHAR
STARTCHAR Z
ENCODING 90
SWIDTH 557 0
DWIDTH 13 0
BBX 11 11 1 0
VVECTOR 7 15
SWIDTH1 0 -1286
DWIDTH1 0 -18
BITMAP 
FFE0
00C0
0180
0300
0600
0C00
1800
3000
6000
C000
FFE0
ENDCHAR
STARTCHAR bracketleft
ENCODING 91
SWIDTH 343 0
DWIDTH 8 0
BBX 4 14 3 -3
VVECTOR 6 15
SWIDTH1 0 -1286
DWIDTH1 0 -18
BITMAP 
F0
C0
C0
C0
C0
C0
C0
C0
C0
C0
C0
C0
C0
F0
ENDCHAR
STARTCHAR backslash
ENCODING 92
SWIDTH 300 0
DWIDTH 7 0
BBX 7 12 0 -1
VVECTOR 4 15
SWIDTH1 0 -1286
DWIDTH1 0 -18
BITMAP 
C0
40
60
20
30
10
10
18
08
0C
04
06
ENDCHAR
STARTCHAR bracketright
ENCODING 93
SWIDTH 343 0
DWIDTH 8 0
BBX 4 14 1 -3
VVECTOR 2 15
SWIDTH1 0 -1286
DWIDTH1 0 -18
BITMAP 
F0
30
30
30
30
30
30
30
30
30
30
30
30
F0
ENDCHAR
STARTCHAR asciicircum
ENCODING 94
SWIDTH 343 0
DWIDTH 8 0
BBX 7 3 0 12
VVECTOR 3 15
SWIDTH1 0 -1286
DWIDTH1 0 -18
BITMAP 
38
6C
C6
ENDCHAR
STARTCHAR underscore
ENCODING 95
SWIDTH 557 0
DWIDTH 13 0
BBX 13 1 0 -3
VVECTOR 7 15
SWIDTH1 0 -1286
DWIDTH1 0 -18
BITMAP 
FFF8
ENDCHAR
STARTCHAR grave
ENCODING 96
SWIDTH 471 0
DWIDTH 11 0
BBX 5 3 2 9
VVECTOR 4 15
SWIDTH1 0 -1286
DWIDTH1 0 -18
BITMAP 
E0
70
18
ENDCHAR
STARTCHAR a
ENCODING 97
SWIDTH 557 0
DWIDTH 13 0
BBX 12 8 1 0
VVECTOR 8 15
SWIDTH1 0 -1286
DWIDTH1 0 -18
BITMAP 
3F80
60C0
00C0
1FC0
60C0
C0C0
C1C0
7E70
ENDCHAR
STARTCHAR b
ENCODING 98
SWIDTH 600 0
DWIDTH 14 0
BBX 11 11 2 0
VVECTOR 8 15
SWIDTH1 0 -1286
DWIDTH1 0 -18
BITMAP 
C000
C000
C000
DF80
E0C0
C060
C060
C060
C060
E0C0
DF80
ENDCHAR
STARTCHAR c
ENCODING 99
SWIDTH 471 0
DWIDTH 11 0
BBX 10 8 1 0
VVECTOR 7 15
SWIDTH1 0 -1286
DWIDTH1 0 -18
BITMAP 
3F80
60C0
C000
C000
C000
C040
60C0
3F80
ENDCHAR
STARTCHAR d
ENCODING 100
SWIDTH 600 0
DWIDTH 14 0
BBX 11 11 1 0
VVECTOR 6 15
SWIDTH1 0 -1286
DWIDTH1 0 -18
BITMAP 
0060
0060
0060
3F60
60E0
C060
C060
C060
C060
60E0
3F60
ENDCHAR
STARTCHAR e
ENCODING 101
SWIDTH 557 0
DWIDTH 13 0
BBX 11 8 1 0
VVECTOR 7 15
SWIDTH1 0 -1286
DWIDTH1 0 -18
BITMAP 
3F80
60C0
C060
FFE0
C000
C000
6060
3FC0
ENDCHAR
STARTCHAR f
ENCODING 102
SWIDTH 257 0
DWIDTH 6 0
BBX 6 11 0 0
VVECTOR 3 15
SWIDTH1 0 -1286
DWIDTH1 0 -18
BITMAP 
1C
30
30
FC
30
30
30
30
30
30
30
ENDCHAR
STARTCHAR g
ENCODING 103
SWIDTH 600 0
DWIDTH 14 0
BBX 11 11 1 -3
VVECTOR 6 15
SWIDTH1 0 -1286
DWIDTH1 0 -18
BITMAP 
3F60
60E0
C060
C060
C060
C060
60E0
3F60
0060
60C0
3F80
ENDCHAR
STARTCHAR h
ENCODING 104
SWIDTH 600 0
DWIDTH 14 0
BBX 10 11 2 0
VVECTOR 7 15
SWIDTH1 0 -1286
DWIDTH1 0 -18
BITMAP 
C000
C000
C000
DF80
E0C0
C0C0
C0C0
C0C0
C0C0
C0C0
C0C0
ENDCHAR
STARTCHAR i
ENCODING 105
SWIDTH 257 0
DWIDTH 6 0
BBX 2 11 2 0
VVECTOR 3 15
SWIDTH1 0 -1286
DWIDTH1 0 -18
BITMAP 
C0
C0
00
C0
C0
C0
C0
C0
C0
C0
C0
ENDCHAR
STARTCHAR j
ENCODING 106
SWIDTH 257 0
DWIDTH 6 0
BBX 4 14 0 -3
VVECTOR 1 15
SWIDTH1 0 -1286
DWIDTH1 0 -18
BITMAP 
30
30
00
30
30
30
30
30
30
30
30
30
30
E0
ENDCHAR
STARTCHAR k
ENCODING 107
SWIDTH 514 0
DWIDTH 12 0
BBX 9 11 2 0
VVECTOR 7 15
SWIDTH1 0 -1286
DWIDTH1 0 -18
BITMAP 
C000
C000
C000
C180
C300
CC00
F800
EC00
C600
C300
C180
ENDCHAR
STARTCHAR l
ENCODING 108
SWIDTH 257 0
DWIDTH 6 0
BBX 2 11 2 0
VVECTOR 3 15
SWIDTH1 0 -1286
DWIDTH1 0 -18
BITMAP 
C0
C0
C0
C0
C0
C0
C0
C0
C0
C0
C0
ENDCHAR
STARTCHAR m
ENCODING 109
SWIDTH 857 0
DWIDTH 20 0
BBX 16 8 2 0
VVECTOR 10 15
SWIDTH1 0 -1286
DWIDTH1 0 -18
BITMAP 
DF3E
E1C3
C183
C183
C183
C183
C183
C183
ENDCHAR
STARTCHAR n
ENCODING 110
SWIDTH 600 0
DWIDTH 14 0
BBX 10 8 2 0
VVECTOR 7 15
SWIDTH1 0 -1286
DWIDTH1 0 -18
BITMAP 
DF80
E0C0
C0C0
C0C0
C0C0
C0C0
C0C0
C0C0
ENDCHAR
STARTCHAR o
ENCODING 111
SWIDTH 600 0
DWIDTH 14 0
BBX 12 8 1 0
VVECTOR 7 15
SWIDTH1 0 -1286
DWIDTH1 0 -18
BITMAP 
3FC0
6060
C030
C030
C030
C030
6060
3FC0
ENDCHAR
STARTCHAR p
ENCODING 112
SWIDTH 600 0
DWIDTH 14 0
BBX 11 11 2 -3
VVECTOR 8 15
SWIDTH1 0 -1286
DWIDTH1 0 -18
BITMAP 
DF80
E0C0
C060
C060
C060
C060
E0C0
DF80
C000
C000
C000
ENDCHAR
STARTCHAR q
ENCODING 113
SWIDTH 600 0
DWIDTH 14 0
BBX 11 11 1 -3
VVECTOR 6 15
SWIDTH1 0 -1286
DWIDTH1 0 -18
BITMAP 
3F60
60E0
C060
C060
C060
C060
60E0
3F60
0060
0060
0060
ENDCHAR
STARTCHAR r
ENCODING 114
SWIDTH 343 0
DWIDTH 8 0
BBX 6 8 2 0
VVECTOR 6 15
SWIDTH1 0 -1286
DWIDTH1 0 -18
BITMAP 
DC
E0
C0
C0
C0
C0
C0
C0
ENDCHAR
STARTCHAR s
ENCODING 115
SWIDTH 471 0
DWIDTH 11 0
BBX 9 8 1 0
VVECTOR 6 15
SWIDTH1 0 -1286
DWIDTH1 0 -18
BITMAP 
7F00
C180
C000
7800
0F00
0180
C180
7F00
ENDCHAR
STARTCHAR t
ENCODING 116
SWIDTH 257 0
DWIDTH 6 0
BBX 6 11 0 0
VVECTOR 3 15
SWIDTH1 0 -1286
DWIDTH1 0 -18
BITMAP 
30
30
30
FC
30
30
30
30
30
30
1C
ENDCHAR
STARTCHAR u
ENCODING 117
SWIDTH 600 0
DWIDTH 14 0
BBX 10 8 2 0
VVECTOR 7 15
SWIDTH1 0 -1286
DWIDTH1 0 -18
BITMAP 
C0C0
C0C0
C0C0
C0C0
C0C0
C0C0
C1C0
7EC0
ENDCHAR
STARTCHAR v
ENCODING 118
SWIDTH 471 0
DWIDTH 11 0
BBX 11 8 0 0
VVECTOR 6 15
SWIDTH1 0 -1286
DWIDTH1 0 -18
BITMAP 
C060
C060
60C0
60C0
3180
3180
1B00
0E00
ENDCHAR
STARTCHAR w
ENCODING 119
SWIDTH 643 0
DWIDTH 15 0
BBX 15 8 0 0
VVECTOR 8 15
SWIDTH1 0 -1286
DWIDTH1 0 -18
BITMAP 
C106
C386
628C
66CC
36D8
3458
1C70
1830
ENDCHAR
STARTCHAR x
ENCODING 120
SWIDTH 471 0
DWIDTH 11 0
BBX 11 8 0 0
VVECTOR 6 15
SWIDTH1 0 -1286
DWIDTH1 0 -18
BITMAP 
60C0
3180
1B00
0E00
1B00
3180
60C0
C060
ENDCHAR
STARTCHAR y
ENCODING 121
SWIDTH 471 0
DWIDTH 11 0
BBX 11 11 0 -3
VVECTOR 6 15
SWIDTH1 0 -1286
DWIDTH1 0 -18
BITMAP 
C060
6060
60C0
30C0
1980
1980
0F00
0600
0600
0C00
3800
ENDCHAR
STARTCHAR z
ENCODING 122
SWIDTH 557 0
DWIDTH 13 0
BBX 11 8 1 0
VVECTOR 7 15
SWIDTH1 0 -1286
DWIDTH1 0 -18
BITMAP 
7FE0
00C0
0380
0600
0C00
3800
6000
FFE0
ENDCHAR
STARTCHAR braceleft
ENCODING 123
SWIDTH 343 0
DWIDTH 8 0
BBX 6 14 1 -3
VVECTOR 4 15
SWIDTH1 0 -1286
DWIDTH1 0 -18
BITMAP 
1C
30
30
30
30
60
C0
60
30
30
30
30
30
1C
ENDCHAR
STARTCHAR bar
ENCODING 124
SWIDTH 257 0
DWIDTH 6 0
BBX 2 14 2 -3
VVECTOR 3 15
SWIDTH1 0 -1286
DWIDTH1 0 -18
BITMAP 
C0
C0
C0
C0
C0
C0
C0
C0
C0
C0
C0
C0
C0
C0
ENDCHAR
STARTCHAR braceright
ENCODING 125
SWIDTH 343 0
DWIDTH 8 0
BBX 6 14 1 -3
VVECTOR 4 15
SWIDTH1 0 -1286
DWIDTH1 0 -18
BITMAP 
E0
30
30
30
30
18
0C
18
30
30
30
30
30
E0
ENDCHAR
STARTCHAR asciitilde
ENCODING 126
SWIDTH 343 0
DWIDTH 8 0
BBX 7 2 0 13
VVECTOR 3 15
SWIDTH1 0 -1286
DWIDTH1 0 -18
BITMAP 
76
DC
ENDCHAR
STARTCHAR house
ENCODING 127
SWIDTH 729 0
DWIDTH 17 0
BBX 13 11 2 0
VVECTOR 9 15
SWIDTH1 0 -1286
DWIDTH1 0 -18
BITMAP 
0700
0D80
18C0
3060
6030
C018
C018
C018
C018
C018
FFF8
ENDCHAR
STARTCHAR Ccedilla
ENCODING 128
SWIDTH 729 0
DWIDTH 17 0
BBX 15 14 1 -3
VVECTOR 9 15
SWIDTH1 0 -1286
DWIDTH1 0 -18
BITMAP 
0FF0
381C
6006
C000
C000
C000
C000
C006
6006
381C
0FF0
0180
0060
03E0
ENDCHAR
STARTCHAR udieresis
ENCODING 129
SWIDTH 600 0
DWIDTH 14 0
BBX 10 12 2 0
VVECTOR 7 15
SWIDTH1 0 -1286
DWIDTH1 0 -18
BITMAP 
3300
3300
0000
0000
C0C0
C0C0
C0C0
C0C0
C0C0
C0C0
C1C0
7EC0
ENDCHAR
STARTCHAR eacute
ENCODING 130
SWIDTH 557 0
DWIDTH 13 0
BBX 11 12 1 0
VVECTOR 7 15
SWIDTH1 0 -1286
DWIDTH1 0 -18
BITMAP 
0380
0700
0C00
0000
3F80
60C0
C060
FFE0
C000
C000
6060
3FC0
ENDCHAR
STARTCHAR acircumflex
ENCODING 131
SWIDTH 557 0
DWIDTH 13 0
BBX 12 12 1 0
VVECTOR 8 15
SWIDTH1 0 -1286
DWIDTH1 0 -18
BITMAP 
0E00
1B00
3180
0000
3F80
60C0
00C0
1FC0
60C0
C0C0
C1C0
7E70
ENDCHAR
STARTCHAR adieresis
ENCODING 132
SWIDTH 557 0
DWIDTH 13 0
BBX 12 12 1 0
VVECTOR 8 15
SWIDTH1 0 -1286
DWIDTH1 0 -18
BITMAP 
1980
1980
0000
0000
3F80
60C0
00C0
1FC0
60C0
C0C0
C1C0
7E70
ENDCHAR
STARTCHAR agrave
ENCODING 133
SWIDTH 557 0
DWIDTH 13 0
BBX 12 12 1 0
VVECTOR 8 15
SWIDTH1 0 -1286
DWIDTH1 0 -18
BITMAP 
3800
1C00
0600
0000
3F80
60C0
00C0
1FC0
60C0
C0C0
C1C0
7E70
ENDCHAR
STARTCHAR aring
ENCODING 134
SWIDTH 557 0
DWIDTH 13 0
BBX 12 12 1 0
VVECTOR 8 15
SWIDTH1 0 -1286
DWIDTH1 0 -18
BITMAP 
0E00
1100
0E00
0000
3F80
60C0
00C0
1FC0
60C0
C0C0
C1C0
7EF0
ENDCHAR
STARTCHAR ccedilla
ENCODING 135
SWIDTH 471 0
DWIDTH 11 0
BBX 10 11 1 -3
VVECTOR 7 15
SWIDTH1 0 -1286
DWIDTH1 0 -18
BITMAP 
3F80
60C0
C000
C000
C000
C040
60C0
3F80
0C00
0300
1F00
ENDCHAR
STARTCHAR ecircumflex
ENCODING 136
SWIDTH 557 0
DWIDTH 13 0
BBX 11 12 1 0
VVECTOR 7 15
SWIDTH1 0 -1286
DWIDTH1 0 -18
BITMAP 
0E00
1B00
3180
0000
3F80
60C0
C060
FFE0
C000
C000
6060
3FC0
ENDCHAR
STARTCHAR edieresis
ENCODING 137
SWIDTH 557 0
DWIDTH 13 0
BBX 11 12 1 0
VVECTOR 7 15
SWIDTH1 0 -1286
DWIDTH1 0 -18
BITMAP 
1980
1980
0000
0000
3F80
60C0
C060
FFE0
C000
C000
6060
3FC0
ENDCHAR
STARTCHAR egrave
ENCODING 138
SWIDTH 557 0
DWIDTH 13 0
BBX 11 12 1 0
VVECTOR 7 15
SWIDTH1 0 -1286
DWIDTH1 0 -18
BITMAP 
3800
1C00
0600
0000
3F80
60C0
C060
FFE0
C000
C000
6060
3FC0
ENDCHAR
STARTCHAR idieresis
ENCODING 139
SWIDTH 257 0
DWIDTH 6 0
BBX 6 12 0 0
VVECTOR 3 15
SWIDTH1 0 -1286
DWIDTH1 0 -18
BITMAP 
CC
CC
00
00
30
30
30
30
30
30
30
30
ENDCHAR
STARTCHAR icircumflex
ENCODING 140
SWIDTH 257 0
DWIDTH 6 0
BBX 6 12 0 0
VVECTOR 3 15
SWIDTH1 0 -1286
DWIDTH1 0 -18
BITMAP 
30
78
CC
00
30
30
30
30
30
30
30
30
ENDCHAR
STARTCHAR igrave
ENCODING 141
SWIDTH 214 0
DWIDTH 5 0
BBX 5 12 0 0
VVECTOR 3 15
SWIDTH1 0 -1286
DWIDTH1 0 -18
BITMAP 
E0
70
18
00
30
30
30
30
30
30
30
30
ENDCHAR
STARTCHAR Adieresis
ENCODING 142
SWIDTH 643 0
DWIDTH 15 0
BBX 13 15 1 0
VVECTOR 8 15
SWIDTH1 0 -1286
DWIDTH1 0 -18
BITMAP 
18C0
18C0
0000
0000
0700
0D80
0880
18C0
1040
3060
3FE0
6030
6030
C018
C018
ENDCHAR
STARTCHAR Aring
ENCODING 143
SWIDTH 643 0
DWIDTH 15 0
BBX 15 13 0 0
VVECTOR 8 15
SWIDTH1 0 -1286
DWIDTH1 0 -18
BITMAP 
0380
0440
0380
0380
06C0
06C0
0C60
0C60
1830
3FF8
3018
600C
E00E
ENDCHAR
STARTCHAR Eacute
ENCODING 144
SWIDTH 643 0
DWIDTH 15 0
BBX 12 15 2 0
VVECTOR 9 15
SWIDTH1 0 -1286
DWIDTH1 0 -18
BITMAP 
01C0
0380
0600
0000
FFF0
C000
C000
C000
C000
FFE0
C000
C000
C000
C000
FFF0
ENDCHAR
STARTCHAR ae
ENCODING 145
SWIDTH 900 0
DWIDTH 21 0
BBX 19 8 1 0
VVECTOR 11 15
SWIDTH1 0 -1286
DWIDTH1 0 -18
BITMAP 
3F3F80
60E0C0
00C060
1FFFE0
60C000
C0C000
C1E060
7E3FC0
ENDCHAR
STARTCHAR AE
ENCODING 146
SWIDTH 986 0
DWIDTH 23 0
BBX 22 11 0 0
VVECTOR 11 15
SWIDTH1 0 -1286
DWIDTH1 0 -18
BITMAP 
01FFFC
033000
063000
063000
0C3000
183FF0
1FF000
303000
303000
603000
C03FFC
ENDCHAR
STARTCHAR ocircumflex
ENCODING 147
SWIDTH 600 0
DWIDTH 14 0
BBX 12 12 1 0
VVECTOR 7 15
SWIDTH1 0 -1286
DWIDTH1 0 -18
BITMAP 
0600
0F00
1980
0000
3FC0
6060
C030
C030
C030
C030
6060
3FC0
ENDCHAR
STARTCHAR odieresis
ENCODING 148
SWIDTH 600 0
DWIDTH 14 0
BBX 12 12 1 0
VVECTOR 7 15
SWIDTH1 0 -1286
DWIDTH1 0 -18
BITMAP 
1980
1980
0000
0000
3FC0
6060
C030
C030
C030
C030
6060
3FC0
ENDCHAR
STARTCHAR ograve
ENCODING 149
SWIDTH 600 0
DWIDTH 14 0
BBX 12 12 1 0
VVECTOR 7 15
SWIDTH1 0 -1286
DWIDTH1 0 -18
BITMAP 
3800
1C00
0600
0000
3FC0
6060
C030
C030
C030
C030
6060
3FC0
ENDCHAR
STARTCHAR ucircumflex
ENCODING 150
SWIDTH 600 0
DWIDTH 14 0
BBX 10 12 2 0
VVECTOR 7 15
SWIDTH1 0 -1286
DWIDTH1 0 -18
BITMAP 
0C00
1E00
3300
0000
C0C0
C0C0
C0C0
C0C0
C0C0
C0C0
C1C0
7EC0
ENDCHAR
STARTCHAR ugrave
ENCODING 151
SWIDTH 600 0
DWIDTH 14 0
BBX 10 12 2 0
VVECTOR 7 15
SWIDTH1 0 -1286
DWIDTH1 0 -18
BITMAP 
7000
3800
0C00
0000
C0C0
C0C0
C0C0
C0C0
C0C0
C0C0
C1C0
7EC0
ENDCHAR
STARTCHAR ydieresis
ENCODING 152
SWIDTH 471 0
DWIDTH 11 0
BBX 11 15 0 -3
VVECTOR 6 15
SWIDTH1 0 -1286
DWIDTH1 0 -18
BITMAP 
1980
1980
0000
0000
C060
6060
60C0
30C0
1980
1980
0F00
0600
0600
0C00
3800
ENDCHAR
STARTCHAR Odieresis
ENCODING 153
SWIDTH 771 0
DWIDTH 18 0
BBX 16 15 1 0
VVECTOR 9 15
SWIDTH1 0 -1286
DWIDTH1 0 -18
BITMAP 
0660
0660
0000
0000
0FF0
381C
6006
C003
C003
C003
C003
C003
6006
381C
0FF0
ENDCHAR
STARTCHAR Udieresis
ENCODING 154
SWIDTH 729 0
DWIDTH 17 0
BBX 13 15 2 0
VVECTOR 9 15
SWIDTH1 0 -1286
DWIDTH1 0 -18
BITMAP 
18C0
18C0
0000
0000
C018
C018
C018
C018
C018
C018
C018
C018
C018
7070
1FC0
ENDCHAR
STARTCHAR oslash
ENCODING 155
SWIDTH 600 0
DWIDTH 14 0
BBX 12 8 1 0
VVECTOR 7 15
SWIDTH1 0 -1286
DWIDTH1 0 -18
BITMAP 
3FD0
6060
C0B0
C330
CC30
D030
6060
BFC0
ENDCHAR
STARTCHAR sterling
ENCODING 156
SWIDTH 557 0
DWIDTH 13 0
BBX 11 11 1 0
VVECTOR 7 15
SWIDTH1 0 -1286
DWIDTH1 0 -18
BITMAP 
3F80
60C0
C060
C000
6000
FE00
3000
3000
6000
FE20
83E0
ENDCHAR
STARTCHAR Oslash
ENCODING 157
SWIDTH 771 0
DWIDTH 18 0
BBX 16 11 1 0
VVECTOR 9 15
SWIDTH1 0 -1286
DWIDTH1 0 -18
BITMAP 
0FF2
381C
6016
C023
C0C3
C103
C603
C803
7006
781C
8FF0
ENDCHAR
STARTCHAR multiply
ENCODING 158
SWIDTH 600 0
DWIDTH 14 0
BBX 10 7 2 2
VVECTOR 7 15
SWIDTH1 0 -1286
DWIDTH1 0 -18
BITMAP 
C0C0
7380
1E00
0C00
1E00
7380
C0C0
ENDCHAR
STARTCHAR florin
ENCODING 159
SWIDTH 557 0
DWIDTH 13 0
BBX 11 14 1 -3
VVECTOR 7 15
SWIDTH1 0 -1286
DWIDTH1 0 -18
BITMAP 
01E0
0300
0300
0600
0600
3F80
0C00
0C00
0C00
1800
1800
1800
3000
E000
ENDCHAR
STARTCHAR aacute
ENCODING 160
SWIDTH 557 0
DWIDTH 13 0
BBX 12 12 1 0
VVECTOR 8 15
SWIDTH1 0 -1286
DWIDTH1 0 -18
BITMAP 
0380
0700
0C00
0000
3F80
60C0
00C0
1FC0
60C0
C0C0
C1C0
7E70
ENDCHAR
STARTCHAR iacute
ENCODING 161
SWIDTH 214 0
DWIDTH 5 0
BBX 5 12 0 0
VVECTOR 3 15
SWIDTH1 0 -1286
DWIDTH1 0 -18
BITMAP 
38
70
C0
00
30
30
30
30
30
30
30
30
ENDCHAR
STARTCHAR oacute
ENCODING 162
SWIDTH 600 0
DWIDTH 14 0
BBX 12 12 1 0
VVECTOR 7 15
SWIDTH1 0 -1286
DWIDTH1 0 -18
BITMAP 
01C0
0380
0600
0000
3FC0
6060
C030
C030
C030
C030
6060
3FC0
ENDCHAR
STARTCHAR uacute
ENCODING 163
SWIDTH 600 0
DWIDTH 14 0
BBX 10 12 2 0
VVECTOR 7 15
SWIDTH1 0 -1286
DWIDTH1 0 -18
BITMAP 
0380
0700
0C00
0000
C0C0
C0C0
C0C0
C0C0
C0C0
C0C0
C1C0
7EC0
ENDCHAR
STARTCHAR ntilde
ENCODING 164
SWIDTH 600 0
DWIDTH 14 0
BBX 10 12 2 0
VVECTOR 7 15
SWIDTH1 0 -1286
DWIDTH1 0 -18
BITMAP 
1D80
3700
0000
0000
DF80
E0C0
C0C0
C0C0
C0C0
C0C0
C0C0
C0C0
ENDCHAR
STARTCHAR Ntilde
ENCODING 165
SWIDTH 729 0
DWIDTH 17 0
BBX 13 15 2 0
VVECTOR 9 15
SWIDTH1 0 -1286
DWIDTH1 0 -18
BITMAP 
0EC0
1B80
0000
0000
E018
F018
D818
CC18
C618
C318
C198
C0D8
C078
C038
C018
ENDCHAR
STARTCHAR ordfeminine
ENCODING 166
SWIDTH 386 0
DWIDTH 9 0
BBX 7 8 1 3
VVECTOR 5 15
SWIDTH1 0 -1286
DWIDTH1 0 -18
BITMAP 
7C
86
3E
C6
C6
7E
00
FE
ENDCHAR
STARTCHAR ordmasculine
ENCODING 167
SWIDTH 386 0
DWIDTH 9 0
BBX 7 8 1 3
VVECTOR 5 15
SWIDTH1 0 -1286
DWIDTH1 0 -18
BITMAP 
7C
C6
C6
C6
C6
7C
00
FE
ENDCHAR
STARTCHAR questiondown
ENCODING 168
SWIDTH 514 0
DWIDTH 12 0
BBX 10 11 1 0
VVECTOR 6 15
SWIDTH1 0 -1286
DWIDTH1 0 -18
BITMAP 
0C00
0C00
0000
0C00
0C00
3800
E000
C0C0
C0C0
E1C0
3F00
ENDCHAR
STARTCHAR registered
ENCODING 169
SWIDTH 729 0
DWIDTH 17 0
BBX 16 10 1 1
VVECTOR 10 15
SWIDTH1 0 -1286
DWIDTH1 0 -18
BITMAP 
0FF0
300C
67E6
C633
C633
C7E3
C673
6632
300C
0FF0
ENDCHAR
STARTCHAR logicalnot
ENCODING 170
SWIDTH 600 0
DWIDTH 14 0
BBX 12 3 1 1
VVECTOR 7 15
SWIDTH1 0 -1286
DWIDTH1 0 -18
BITMAP 
FFF0
0030
0030
ENDCHAR
STARTCHAR onehalf
ENCODING 171
SWIDTH 771 0
DWIDTH 18 0
BBX 16 11 1 0
VVECTOR 9 15
SWIDTH1 0 -1286
DWIDTH1 0 -18
BITMAP 
3006
F00C
3018
3030
3060
31CE
031B
0603
0C0E
1818
301F
ENDCHAR
STARTCHAR onequarter
ENCODING 172
SWIDTH 771 0
DWIDTH 18 0
BBX 16 11 1 0
VVECTOR 9 15
SWIDTH1 0 -1286
DWIDTH1 0 -18
BITMAP 
3006
F00C
3018
3030
3060
31C6
030E
0616
0C26
183F
3006
ENDCHAR
STARTCHAR exclamdown
ENCODING 173
SWIDTH 257 0
DWIDTH 6 0
BBX 2 11 2 0
VVECTOR 3 15
SWIDTH1 0 -1286
DWIDTH1 0 -18
BITMAP 
C0
C0
00
C0
C0
C0
C0
C0
C0
C0
C0
ENDCHAR
STARTCHAR guillemotleft
ENCODING 174
SWIDTH 429 0
DWIDTH 10 0
BBX 9 5 0 2
VVECTOR 4 15
SWIDTH1 0 -1286
DWIDTH1 0 -18
BITMAP 
3180
6300
C600
6300
3180
ENDCHAR
STARTCHAR guillemotright
ENCODING 175
SWIDTH 429 0
DWIDTH 10 0
BBX 9 5 1 2
VVECTOR 6 15
SWIDTH1 0 -1286
DWIDTH1 0 -18
BITMAP 
C600
6300
3180
6300
C600
ENDCHAR
STARTCHAR ltshade
ENCODING 176
SWIDTH 600 0
DWIDTH 14 0
BBX 10 14 2 -1
VVECTOR 7 15
SWIDTH1 0 -1286
DWIDTH1 0 -18
BITMAP 
CCC0
CCC0
0000
0000
CCC0
CCC0
0000
0000
CCC0
CCC0
0000
0000
CCC0
CCC0
ENDCHAR
STARTCHAR shade
ENCODING 177
SWIDTH 600 0
DWIDTH 14 0
BBX 10 16 2 -3
VVECTOR 7 15
SWIDTH1 0 -1286
DWIDTH1 0 -18
BITMAP 
C0C0
C0C0
0C00
0C00
C0C0
C0C0
0C00
0C00
C0C0
C0C0
0C00
0C00
C0C0
C0C0
0C00
0C00
ENDCHAR
STARTCHAR dkshade
ENCODING 178
SWIDTH 600 0
DWIDTH 14 0
BBX 10 16 2 -3
VVECTOR 7 15
SWIDTH1 0 -1286
DWIDTH1 0 -18
BITMAP 
CCC0
CCC0
3300
3300
CCC0
CCC0
3300
3300
CCC0
CCC0
3300
3300
CCC0
CCC0
3300
3300
ENDCHAR
STARTCHAR SF110000
ENCODING 179
SWIDTH 600 0
DWIDTH 14 0
BBX 2 18 6 -3
VVECTOR 7 15
SWIDTH1 0 -1286
DWIDTH1 0 -18
BITMAP 
C0
C0
C0
C0
C0
C0
C0
C0
C0
C0
C0
C0
C0
C0
C0
C0
C0
C0
ENDCHAR
STARTCHAR SF090000
ENCODING 180
SWIDTH 600 0
DWIDTH 14 0
BBX 8 18 0 -3
VVECTOR 1 15
SWIDTH1 0 -1286
DWIDTH1 0 -18
BITMAP 
03
03
03
03
03
03
03
03
03
FF
03
03
03
03
03
03
03
03
ENDCHAR
STARTCHAR Aacute
ENCODING 181
SWIDTH 643 0
DWIDTH 15 0
BBX 13 15 1 0
VVECTOR 8 15
SWIDTH1 0 -1286
DWIDTH1 0 -18
BITMAP 
01C0
0380
0600
0000
0700
0D80
0880
18C0
1040
3060
3FE0
6030
6030
C018
C018
ENDCHAR
STARTCHAR Acircumflex
ENCODING 182
SWIDTH 643 0
DWIDTH 15 0
BBX 13 15 1 0
VVECTOR 8 15
SWIDTH1 0 -1286
DWIDTH1 0 -18
BITMAP 
0700
0D80
18C0
0000
0700
0D80
0880
18C0
1040
3060
3FE0
6030
6030
C018
C018
ENDCHAR
STARTCHAR Agrave
ENCODING 183
SWIDTH 643 0
DWIDTH 15 0
BBX 13 15 1 0
VVECTOR 8 15
SWIDTH1 0 -1286
DWIDTH1 0 -18
BITMAP 
1C00
0E00
0300
0000
0700
0D80
0880
18C0
1040
3060
3FE0
6030
6030
C018
C018
ENDCHAR
STARTCHAR copyright
ENCODING 184
SWIDTH 729 0
DWIDTH 17 0
BBX 16 10 1 1
VVECTOR 10 15
SWIDTH1 0 -1286
DWIDTH1 0 -18
BITMAP 
0FF0
300C
63C6
C633
CC03
CC03
C633
63C6
300C
0FF0
ENDCHAR
STARTCHAR SF230000
ENCODING 185
SWIDTH 600 0
DWIDTH 14 0
BBX 10 18 0 -3
VVECTOR 3 15
SWIDTH1 0 -1286
DWIDTH1 0 -18
BITMAP 
0CC0
0CC0
0CC0
0CC0
0CC0
0CC0
0CC0
0CC0
FCC0
00C0
FCC0
0CC0
0CC0
0CC0
0CC0
0CC0
0CC0
0CC0
ENDCHAR
STARTCHAR SF240000
ENCODING 186
SWIDTH 600 0
DWIDTH 14 0
BBX 6 18 4 -3
VVECTOR 7 15
SWIDTH1 0 -1286
DWIDTH1 0 -18
BITMAP 
CC
CC
CC
CC
CC
CC
CC
CC
CC
CC
CC
CC
CC
CC
CC
CC
CC
CC
ENDCHAR
STARTCHAR SF250000
ENCODING 187
SWIDTH 600 0
DWIDTH 14 0
BBX 10 10 0 -3
VVECTOR 3 15
SWIDTH1 0 -1286
DWIDTH1 0 -18
BITMAP 
FFC0
00C0
FCC0
0CC0
0CC0
0CC0
0CC0
0CC0
0CC0
0CC0
ENDCHAR
STARTCHAR SF260000
ENCODING 188
SWIDTH 600 0
DWIDTH 14 0
BBX 10 11 0 4
VVECTOR 3 15
SWIDTH1 0 -1286
DWIDTH1 0 -18
BITMAP 
0CC0
0CC0
0CC0
0CC0
0CC0
0CC0
0CC0
0CC0
FCC0
00C0
FFC0
ENDCHAR
STARTCHAR cent
ENCODING 189
SWIDTH 557 0
DWIDTH 13 0
BBX 11 11 1 -2
VVECTOR 7 15
SWIDTH1 0 -1286
DWIDTH1 0 -18
BITMAP 
0080
0100
1F80
7260
C400
C400
C860
68C0
1F80
1000
1000
ENDCHAR
STARTCHAR yen
ENCODING 190
SWIDTH 600 0
DWIDTH 14 0
BBX 14 11 0 0
VVECTOR 7 15
SWIDTH1 0 -1286
DWIDTH1 0 -18
BITMAP 
C00C
6018
3030
F87C
0CC0
0780
FFFC
0300
0300
0300
0300
ENDCHAR
STARTCHAR SF030000
ENCODING 191
SWIDTH 600 0
DWIDTH 14 0
BBX 8 9 0 -3
VVECTOR 1 15
SWIDTH1 0 -1286
DWIDTH1 0 -18
BITMAP 
FF
03
03
03
03
03
03
03
03
ENDCHAR
STARTCHAR SF020000
ENCODING 192
SWIDTH 600 0
DWIDTH 14 0
BBX 8 10 6 5
VVECTOR 13 15
SWIDTH1 0 -1286
DWIDTH1 0 -18
BITMAP 
C0
C0
C0
C0
C0
C0
C0
C0
C0
FF
ENDCHAR
STARTCHAR SF070000
ENCODING 193
SWIDTH 600 0
DWIDTH 14 0
BBX 14 10 0 5
VVECTOR 7 15
SWIDTH1 0 -1286
DWIDTH1 0 -18
BITMAP 
0300
0300
0300
0300
0300
0300
0300
0300
0300
FFFC
ENDCHAR
STARTCHAR SF060000
ENCODING 194
SWIDTH 600 0
DWIDTH 14 0
BBX 14 9 0 -3
VVECTOR 7 15
SWIDTH1 0 -1286
DWIDTH1 0 -18
BITMAP 
FFFC
0300
0300
0300
0300
0300
0300
0300
0300
ENDCHAR
STARTCHAR SF080000
ENCODING 195
SWIDTH 600 0
DWIDTH 14 0
BBX 8 18 6 -3
VVECTOR 13 15
SWIDTH1 0 -1286
DWIDTH1 0 -18
BITMAP 
C0
C0
C0
C0
C0
C0
C0
C0
C0
FF
C0
C0
C0
C0
C0
C0
C0
C0
ENDCHAR
STARTCHAR SF100000
ENCODING 196
SWIDTH 600 0
DWIDTH 14 0
BBX 14 1 0 5
VVECTOR 7 15
SWIDTH1 0 -1286
DWIDTH1 0 -18
BITMAP 
FFFC
ENDCHAR
STARTCHAR SF050000
ENCODING 197
SWIDTH 600 0
DWIDTH 14 0
BBX 14 18 0 -3
VVECTOR 7 15
SWIDTH1 0 -1286
DWIDTH1 0 -18
BITMAP 
0300
0300
0300
0300
0300
0300
0300
0300
0300
FFFC
0300
0300
0300
0300
0300
0300
0300
0300
ENDCHAR
STARTCHAR atilde
ENCODING 198
SWIDTH 557 0
DWIDTH 13 0
BBX 12 12 1 0
VVECTOR 8 15
SWIDTH1 0 -1286
DWIDTH1 0 -18
BITMAP 
1D80
3700
0000
0000
3F80
60C0
00C0
1FC0
60C0
C0C0
C1C0
7E70
ENDCHAR
STARTCHAR Atilde
ENCODING 199
SWIDTH 643 0
DWIDTH 15 0
BBX 13 15 1 0
VVECTOR 8 15
SWIDTH1 0 -1286
DWIDTH1 0 -18
BITMAP 
0EC0
1B80
0000
0000
0700
0D80
0880
18C0
1040
3060
3FE0
6030
6030
C018
C018
ENDCHAR
STARTCHAR SF380000
ENCODING 200
SWIDTH 600 0
DWIDTH 14 0
BBX 10 11 4 4
VVECTOR 11 15
SWIDTH1 0 -1286
DWIDTH1 0 -18
BITMAP 
CC00
CC00
CC00
CC00
CC00
CC00
CC00
CC00
CFC0
C000
FFC0
ENDCHAR
STARTCHAR SF390000
ENCODING 201
SWIDTH 600 0
DWIDTH 14 0
BBX 10 10 4 -3
VVECTOR 11 15
SWIDTH1 0 -1286
DWIDTH1 0 -18
BITMAP 
FFC0
C000
CFC0
CC00
CC00
CC00
CC00
CC00
CC00
CC00
ENDCHAR
STARTCHAR SF400000
ENCODING 202
SWIDTH 600 0
DWIDTH 14 0
BBX 14 11 0 4
VVECTOR 7 15
SWIDTH1 0 -1286
DWIDTH1 0 -18
BITMAP 
0CC0
0CC0
0CC0
0CC0
0CC0
0CC0
0CC0
0CC0
FCFC
0000
FFFC
ENDCHAR
STARTCHAR SF410000
ENCODING 203
SWIDTH 600 0
DWIDTH 14 0
BBX 14 10 0 -3
VVECTOR 7 15
SWIDTH1 0 -1286
DWIDTH1 0 -18
BITMAP 
FFFC
0000
FCFC
0CC0
0CC0
0CC0
0CC0
0CC0
0CC0
0CC0
ENDCHAR
STARTCHAR SF420000
ENCODING 204
SWIDTH 600 0
DWIDTH 14 0
BBX 10 18 4 -3
VVECTOR 11 15
SWIDTH1 0 -1286
DWIDTH1 0 -18
BITMAP 
CC00
CC00
CC00
CC00
CC00
CC00
CC00
CC00
CFC0
C000
CFC0
CC00
CC00
CC00
CC00
CC00
CC00
CC00
ENDCHAR
STARTCHAR SF430000
ENCODING 205
SWIDTH 600 0
DWIDTH 14 0
BBX 14 3 0 4
VVECTOR 7 15
SWIDTH1 0 -1286
DWIDTH1 0 -18
BITMAP 
FFFC
0000
FFFC
ENDCHAR
STARTCHAR SF440000
ENCODING 206
SWIDTH 600 0
DWIDTH 14 0
BBX 14 18 0 -3
VVECTOR 7 15
SWIDTH1 0 -1286
DWIDTH1 0 -18
BITMAP 
0CC0
0CC0
0CC0
0CC0
0CC0
0CC0
0CC0
0CC0
FCFC
0000
FCFC
0CC0
0CC0
0CC0
0CC0
0CC0
0CC0
0CC0
ENDCHAR
STARTCHAR currency
ENCODING 207
SWIDTH 600 0
DWIDTH 14 0
BBX 12 8 1 3
VVECTOR 7 15
SWIDTH1 0 -1286
DWIDTH1 0 -18
BITMAP 
C030
6F60
30C0
6060
6060
30C0
6F60
C030
ENDCHAR
STARTCHAR eth
ENCODING 208
SWIDTH 600 0
DWIDTH 14 0
BBX 12 11 1 0
VVECTOR 7 15
SWIDTH1 0 -1286
DWIDTH1 0 -18
BITMAP 
7300
1C00
6E00
0380
1FC0
6060
C030
C030
C030
6060
3FC0
ENDCHAR
STARTCHAR Eth
ENCODING 209
SWIDTH 729 0
DWIDTH 17 0
BBX 16 11 0 0
VVECTOR 8 15
SWIDTH1 0 -1286
DWIDTH1 0 -18
BITMAP 
3FF0
301C
3006
3003
3003
FF83
3003
3003
3006
301C
3FF0
ENDCHAR
STARTCHAR Ecircumflex
ENCODING 210
SWIDTH 643 0
DWIDTH 15 0
BBX 12 15 2 0
VVECTOR 9 15
SWIDTH1 0 -1286
DWIDTH1 0 -18
BITMAP 
0600
0F00
1980
0000
FFF0
C000
C000
C000
C000
FFE0
C000
C000
C000
C000
FFF0
ENDCHAR
STARTCHAR Edieresis
ENCODING 211
SWIDTH 643 0
DWIDTH 15 0
BBX 12 15 2 0
VVECTOR 9 15
SWIDTH1 0 -1286
DWIDTH1 0 -18
BITMAP 
1980
1980
0000
0000
FFF0
C000
C000
C000
C000
FFE0
C000
C000
C000
C000
FFF0
ENDCHAR
STARTCHAR Egrave
ENCODING 212
SWIDTH 643 0
DWIDTH 15 0
BBX 12 15 2 0
VVECTOR 9 15
SWIDTH1 0 -1286
DWIDTH1 0 -18
BITMAP 
1C00
0E00
0300
0000
FFF0
C000
C000
C000
C000
FFE0
C000
C000
C000
C000
FFF0
ENDCHAR
STARTCHAR Euro
ENCODING 213
SWIDTH 257 0
DWIDTH 6 0
BBX 2 8 2 0
VVECTOR 3 15
SWIDTH1 0 -1286
DWIDTH1 0 -18
BITMAP 
C0
C0
C0
C0
C0
C0
C0
C0
ENDCHAR
STARTCHAR Iacute
ENCODING 214
SWIDTH 257 0
DWIDTH 6 0
BBX 5 15 1 0
VVECTOR 4 15
SWIDTH1 0 -1286
DWIDTH1 0 -18
BITMAP 
38
70
C0
00
60
60
60
60
60
60
60
60
60
60
60
ENDCHAR
STARTCHAR Icircumflex
ENCODING 215
SWIDTH 257 0
DWIDTH 6 0
BBX 6 15 0 0
VVECTOR 3 15
SWIDTH1 0 -1286
DWIDTH1 0 -18
BITMAP 
30
78
CC
00
30
30
30
30
30
30
30
30
30
30
30
ENDCHAR
STARTCHAR Idieresis
ENCODING 216
SWIDTH 257 0
DWIDTH 6 0
BBX 6 15 0 0
VVECTOR 3 15
SWIDTH1 0 -1286
DWIDTH1 0 -18
BITMAP 
CC
CC
00
00
30
30
30
30
30
30
30
30
30
30
30
ENDCHAR
STARTCHAR SF040000
ENCODING 217
SWIDTH 600 0
DWIDTH 14 0
BBX 8 10 0 5
VVECTOR 1 15
SWIDTH1 0 -1286
DWIDTH1 0 -18
BITMAP 
03
03
03
03
03
03
03
03
03
FF
ENDCHAR
STARTCHAR SF010000
ENCODING 218
SWIDTH 600 0
DWIDTH 14 0
BBX 8 9 6 -3
VVECTOR 13 15
SWIDTH1 0 -1286
DWIDTH1 0 -18
BITMAP 
FF
C0
C0
C0
C0
C0
C0
C0
C0
ENDCHAR
STARTCHAR block
ENCODING 219
SWIDTH 600 0
DWIDTH 14 0
BBX 14 18 0 -3
VVECTOR 7 15
SWIDTH1 0 -1286
DWIDTH1 0 -18
BITMAP 
FFFC
FFFC
FFFC
FFFC
FFFC
FFFC
FFFC
FFFC
FFFC
FFFC
FFFC
FFFC
FFFC
FFFC
FFFC
FFFC
FFFC
FFFC
ENDCHAR
STARTCHAR dnblock
ENCODING 220
SWIDTH 600 0
DWIDTH 14 0
BBX 14 9 0 -3
VVECTOR 7 15
SWIDTH1 0 -1286
DWIDTH1 0 -18
BITMAP 
FFFC
FFFC
FFFC
FFFC
FFFC
FFFC
FFFC
FFFC
FFFC
ENDCHAR
STARTCHAR brokenbar
ENCODING 221
SWIDTH 257 0
DWIDTH 6 0
BBX 2 12 2 -2
VVECTOR 3 15
SWIDTH1 0 -1286
DWIDTH1 0 -18
BITMAP 
C0
C0
C0
C0
C0
00
00
C0
C0
C0
C0
C0
ENDCHAR
STARTCHAR Igrave
ENCODING 222
SWIDTH 257 0
DWIDTH 6 0
BBX 5 15 0 0
VVECTOR 2 15
SWIDTH1 0 -1286
DWIDTH1 0 -18
BITMAP 
E0
70
18
00
30
30
30
30
30
30
30
30
30
30
30
ENDCHAR
STARTCHAR upblock
ENCODING 223
SWIDTH 600 0
DWIDTH 14 0
BBX 14 10 0 5
VVECTOR 7 15
SWIDTH1 0 -1286
DWIDTH1 0 -18
BITMAP 
FFFC
FFFC
FFFC
FFFC
FFFC
FFFC
FFFC
FFFC
FFFC
FFFC
ENDCHAR
STARTCHAR Oacute
ENCODING 224
SWIDTH 771 0
DWIDTH 18 0
BBX 16 15 1 0
VVECTOR 9 15
SWIDTH1 0 -1286
DWIDTH1 0 -18
BITMAP 
0070
00E0
0180
0000
0FF0
381C
6006
C003
C003
C003
C003
C003
6006
381C
0FF0
ENDCHAR
STARTCHAR germandbls
ENCODING 225
SWIDTH 557 0
DWIDTH 13 0
BBX 10 11 2 0
VVECTOR 8 15
SWIDTH1 0 -1286
DWIDTH1 0 -18
BITMAP 
3E00
E300
C180
C180
C180
CF00
C180
C0C0
C0C0
C180
CF00
ENDCHAR
STARTCHAR Ocircumflex
ENCODING 226
SWIDTH 771 0
DWIDTH 18 0
BBX 16 15 1 0
VVECTOR 9 15
SWIDTH1 0 -1286
DWIDTH1 0 -18
BITMAP 
0180
03C0
0660
0000
0FF0
381C
6006
C003
C003
C003
C003
C003
6006
381C
0FF0
ENDCHAR
STARTCHAR Ograve
ENCODING 227
SWIDTH 771 0
DWIDTH 18 0
BBX 16 15 1 0
VVECTOR 9 15
SWIDTH1 0 -1286
DWIDTH1 0 -18
BITMAP 
0E00
0700
0180
0000
0FF0
381C
6006
C003
C003
C003
C003
C003
6006
381C
0FF0
ENDCHAR
STARTCHAR otilde
ENCODING 228
SWIDTH 600 0
DWIDTH 14 0
BBX 12 12 1 0
VVECTOR 7 15
SWIDTH1 0 -1286
DWIDTH1 0 -18
BITMAP 
0EC0
1B80
0000
0000
3FC0
6060
C030
C030
C030
C030
6060
3FC0
ENDCHAR
STARTCHAR Otilde
ENCODING 229
SWIDTH 771 0
DWIDTH 18 0
BBX 16 15 1 0
VVECTOR 9 15
SWIDTH1 0 -1286
DWIDTH1 0 -18
BITMAP 
03B0
06E0
0000
0000
0FF0
381C
6006
C003
C003
C003
C003
C003
6006
381C
0FF0
ENDCHAR
STARTCHAR mu
ENCODING 230
SWIDTH 514 0
DWIDTH 12 0
BBX 11 10 1 -3
VVECTOR 7 15
SWIDTH1 0 -1286
DWIDTH1 0 -18
BITMAP 
C300
C300
C300
C300
C300
C320
FCC0
C000
C000
8000
ENDCHAR
STARTCHAR thorn
ENCODING 231
SWIDTH 600 0
DWIDTH 14 0
BBX 11 14 2 -3
VVECTOR 8 15
SWIDTH1 0 -1286
DWIDTH1 0 -18
BITMAP 
C000
C000
C000
DF80
E0C0
C060
C060
C060
C060
E0C0
DF80
C000
C000
C000
ENDCHAR
STARTCHAR Thorn
ENCODING 232
SWIDTH 643 0
DWIDTH 15 0
BBX 12 11 2 0
VVECTOR 9 15
SWIDTH1 0 -1286
DWIDTH1 0 -18
BITMAP 
C000
C000
FFC0
C060
C030
C030
C060
FFC0
C000
C000
C000
ENDCHAR
STARTCHAR Uacute
ENCODING 233
SWIDTH 729 0
DWIDTH 17 0
BBX 13 15 2 0
VVECTOR 9 15
SWIDTH1 0 -1286
DWIDTH1 0 -18
BITMAP 
01C0
0380
0600
0000
C018
C018
C018
C018
C018
C018
C018
C018
C018
7070
1FC0
ENDCHAR
STARTCHAR Ucircumflex
ENCODING 234
SWIDTH 729 0
DWIDTH 17 0
BBX 13 15 2 0
VVECTOR 9 15
SWIDTH1 0 -1286
DWIDTH1 0 -18
BITMAP 
0700
0D80
18C0
0000
C018
C018
C018
C018
C018
C018
C018
C018
C018
7070
1FC0
ENDCHAR
STARTCHAR Ugrave
ENCODING 235
SWIDTH 729 0
DWIDTH 17 0
BBX 13 15 2 0
VVECTOR 9 15
SWIDTH1 0 -1286
DWIDTH1 0 -18
BITMAP 
1C00
0E00
0300
0000
C018
C018
C018
C018
C018
C018
C018
C018
C018
7070
1FC0
ENDCHAR
STARTCHAR yacute
ENCODING 236
SWIDTH 471 0
DWIDTH 11 0
BBX 11 15 0 -3
VVECTOR 6 15
SWIDTH1 0 -1286
DWIDTH1 0 -18
BITMAP 
0380
0700
0C00
0000
C060
6060
60C0
30C0
1980
1980
0F00
0600
0600
0C00
3800
ENDCHAR
STARTCHAR Yacute
ENCODING 237
SWIDTH 686 0
DWIDTH 16 0
BBX 14 15 1 0
VVECTOR 8 15
SWIDTH1 0 -1286
DWIDTH1 0 -18
BITMAP 
01C0
0380
0600
0000
C00C
6018
3030
1860
0CC0
0780
0300
0300
0300
0300
0300
ENDCHAR
STARTCHAR macron
ENCODING 238
SWIDTH 471 0
DWIDTH 11 0
BBX 5 2 3 10
VVECTOR 6 15
SWIDTH1 0 -1286
DWIDTH1 0 -18
BITMAP 
F8
F8
ENDCHAR
STARTCHAR acute
ENCODING 239
SWIDTH 471 0
DWIDTH 11 0
BBX 5 3 4 9
VVECTOR 8 15
SWIDTH1 0 -1286
DWIDTH1 0 -18
BITMAP 
38
70
C0
ENDCHAR
STARTCHAR uni00AD
ENCODING 240
SWIDTH 300 0
DWIDTH 7 0
BBX 5 1 1 4
VVECTOR 4 15
SWIDTH1 0 -1286
DWIDTH1 0 -18
BITMAP 
F8
ENDCHAR
STARTCHAR plusminus
ENCODING 241
SWIDTH 600 0
DWIDTH 14 0
BBX 12 7 1 0
VVECTOR 7 15
SWIDTH1 0 -1286
DWIDTH1 0 -18
BITMAP 
0600
0600
FFF0
0600
0600
0000
FFF0
ENDCHAR
STARTCHAR underscoredbl
ENCODING 242
SWIDTH 557 0
DWIDTH 13 0
BBX 13 3 0 -3
VVECTOR 7 15
SWIDTH1 0 -1286
DWIDTH1 0 -18
BITMAP 
FFF8
0000
FFF8
ENDCHAR
STARTCHAR threequarters
ENCODING 243
SWIDTH 771 0
DWIDTH 18 0
BBX 16 11 1 0
VVECTOR 9 15
SWIDTH1 0 -1286
DWIDTH1 0 -18
BITMAP 
F006
180C
7018
1830
1860
F1C6
030E
0616
0C26
183F
3006
ENDCHAR
STARTCHAR paragraph
ENCODING 244
SWIDTH 514 0
DWIDTH 12 0
BBX 10 12 1 -1
VVECTOR 6 15
SWIDTH1 0 -1286
DWIDTH1 0 -18
BITMAP 
7FC0
F980
F980
F980
7980
1980
1980
1980
1980
1980
1980
1980
ENDCHAR
STARTCHAR section
ENCODING 245
SWIDTH 514 0
DWIDTH 12 0
BBX 10 12 1 -1
VVECTOR 6 15
SWIDTH1 0 -1286
DWIDTH1 0 -18
BITMAP 
3F00
6180
6000
3C00
C780
C0C0
C0C0
78C0
0F00
0180
6180
3F00
ENDCHAR
STARTCHAR divide
ENCODING 246
SWIDTH 600 0
DWIDTH 14 0
BBX 12 9 1 1
VVECTOR 7 15
SWIDTH1 0 -1286
DWIDTH1 0 -18
BITMAP 
0600
0600
0000
0000
FFF0
0000
0000
0600
0600
ENDCHAR
STARTCHAR cedilla
ENCODING 247
SWIDTH 429 0
DWIDTH 10 0
BBX 5 3 4 -3
VVECTOR 8 15
SWIDTH1 0 -1286
DWIDTH1 0 -18
BITMAP 
60
18
F8
ENDCHAR
STARTCHAR degree
ENCODING 248
SWIDTH 386 0
DWIDTH 9 0
BBX 7 4 1 7
VVECTOR 5 15
SWIDTH1 0 -1286
DWIDTH1 0 -18
BITMAP 
38
C6
C6
38
ENDCHAR
STARTCHAR dieresis
ENCODING 249
SWIDTH 471 0
DWIDTH 11 0
BBX 6 2 3 10
VVECTOR 7 15
SWIDTH1 0 -1286
DWIDTH1 0 -18
BITMAP 
CC
CC
ENDCHAR
STARTCHAR periodcentered
ENCODING 250
SWIDTH 257 0
DWIDTH 6 0
BBX 2 2 2 4
VVECTOR 3 15
SWIDTH1 0 -1286
DWIDTH1 0 -18
BITMAP 
C0
C0
ENDCHAR
STARTCHAR uni00B9
ENCODING 251
SWIDTH 300 0
DWIDTH 7 0
BBX 4 6 1 5
VVECTOR 3 15
SWIDTH1 0 -1286
DWIDTH1 0 -18
BITMAP 
30
F0
30
30
30
30
ENDCHAR
STARTCHAR uni00B3
ENCODING 252
SWIDTH 300 0
DWIDTH 7 0
BBX 5 6 1 5
VVECTOR 4 15
SWIDTH1 0 -1286
DWIDTH1 0 -18
BITMAP 
F0
18
70
18
18
F0
ENDCHAR
STARTCHAR uni00B2
ENCODING 253
SWIDTH 300 0
DWIDTH 7 0
BBX 5 6 1 5
VVECTOR 4 15
SWIDTH1 0 -1286
DWIDTH1 0 -18
BITMAP 
70
D8
18
70
C0
F8
ENDCHAR
STARTCHAR filledbox
ENCODING 254
SWIDTH 729 0
DWIDTH 17 0
BBX 17 11 0 0
VVECTOR 9 15
SWIDTH1 0 -1286
DWIDTH1 0 -18
BITMAP 
FFFF80
FFFF80
FFFF80
FFFF80
FFFF80
FFFF80
FFFF80
FFFF80
FFFF80
FFFF80
FFFF80
ENDCHAR
STARTCHAR uni00A0
ENCODING 255
SWIDTH 257 0
DWIDTH 6 0
BBX 0 0 6 15
VVECTOR 9 15
SWIDTH1 0 -1286
DWIDTH1 0 -18
BITMAP 
ENDCHAR
STARTCHAR peseta
ENCODING 256
SWIDTH 1029 0
DWIDTH 24 0
BBX 21 11 2 0
VVECTOR 13 15
SWIDTH1 0 -1286
DWIDTH1 0 -18
BITMAP 
FF0000
C18000
C0C000
C0C000
C19000
FF3000
C079F0
C03300
C031F0
C03018
C01BF0
ENDCHAR
STARTCHAR revlogicalnot
ENCODING 257
SWIDTH 557 0
DWIDTH 13 0
BBX 11 6 1 0
VVECTOR 7 15
SWIDTH1 0 -1286
DWIDTH1 0 -18
BITMAP 
FFE0
C000
C000
C000
C000
C000
ENDCHAR
STARTCHAR SF190000
ENCODING 258
SWIDTH 600 0
DWIDTH 14 0
BBX 8 18 0 -3
VVECTOR 1 15
SWIDTH1 0 -1286
DWIDTH1 0 -18
BITMAP 
03
03
03
03
03
03
03
03
FF
03
FF
03
03
03
03
03
03
03
ENDCHAR
STARTCHAR SF200000
ENCODING 259
SWIDTH 600 0
DWIDTH 14 0
BBX 10 18 0 -3
VVECTOR 3 15
SWIDTH1 0 -1286
DWIDTH1 0 -18
BITMAP 
0CC0
0CC0
0CC0
0CC0
0CC0
0CC0
0CC0
0CC0
0CC0
FCC0
0CC0
0CC0
0CC0
0CC0
0CC0
0CC0
0CC0
0CC0
ENDCHAR
STARTCHAR SF210000
ENCODING 260
SWIDTH 600 0
DWIDTH 14 0
BBX 10 9 0 -3
VVECTOR 3 15
SWIDTH1 0 -1286
DWIDTH1 0 -18
BITMAP 
FFC0
0CC0
0CC0
0CC0
0CC0
0CC0
0CC0
0CC0
0CC0
ENDCHAR
STARTCHAR SF220000
ENCODING 261
SWIDTH 600 0
DWIDTH 14 0
BBX 8 10 0 -3
VVECTOR 1 15
SWIDTH1 0 -1286
DWIDTH1 0 -18
BITMAP 
FF
03
FF
03
03
03
03
03
03
03
ENDCHAR
STARTCHAR SF270000
ENCODING 262
SWIDTH 600 0
DWIDTH 14 0
BBX 10 10 0 5
VVECTOR 3 15
SWIDTH1 0 -1286
DWIDTH1 0 -18
BITMAP 
0CC0
0CC0
0CC0
0CC0
0CC0
0CC0
0CC0
0CC0
0CC0
FFC0
ENDCHAR
STARTCHAR SF280000
ENCODING 263
SWIDTH 600 0
DWIDTH 14 0
BBX 8 11 0 4
VVECTOR 1 15
SWIDTH1 0 -1286
DWIDTH1 0 -18
BITMAP 
03
03
03
03
03
03
03
03
FF
03
FF
ENDCHAR
STARTCHAR SF360000
ENCODING 264
SWIDTH 600 0
DWIDTH 14 0
BBX 8 18 6 -3
VVECTOR 13 15
SWIDTH1 0 -1286
DWIDTH1 0 -18
BITMAP 
C0
C0
C0
C0
C0
C0
C0
C0
FF
C0
FF
C0
C0
C0
C0
C0
C0
C0
ENDCHAR
STARTCHAR SF370000
ENCODING 265
SWIDTH 600 0
DWIDTH 14 0
BBX 10 18 4 -3
VVECTOR 11 15
SWIDTH1 0 -1286
DWIDTH1 0 -18
BITMAP 
CC00
CC00
CC00
CC00
CC00
CC00
CC00
CC00
CC00
CFC0
CC00
CC00
CC00
CC00
CC00
CC00
CC00
CC00
ENDCHAR
STARTCHAR SF450000
ENCODING 266
SWIDTH 600 0
DWIDTH 14 0
BBX 14 11 0 4
VVECTOR 7 15
SWIDTH1 0 -1286
DWIDTH1 0 -18
BITMAP 
0300
0300
0300
0300
0300
0300
0300
0300
FFFC
0000
FFFC
ENDCHAR
STARTCHAR SF460000
ENCODING 267
SWIDTH 600 0
DWIDTH 14 0
BBX 14 10 0 5
VVECTOR 7 15
SWIDTH1 0 -1286
DWIDTH1 0 -18
BITMAP 
0CC0
0CC0
0CC0
0CC0
0CC0
0CC0
0CC0
0CC0
0CC0
FFFC
ENDCHAR
STARTCHAR SF470000
ENCODING 268
SWIDTH 600 0
DWIDTH 14 0
BBX 14 10 0 -3
VVECTOR 7 15
SWIDTH1 0 -1286
DWIDTH1 0 -18
BITMAP 
FFFC
0000
FFFC
0300
0300
0300
0300
0300
0300
0300
ENDCHAR
STARTCHAR SF480000
ENCODING 269
SWIDTH 600 0
DWIDTH 14 0
BBX 14 9 0 -3
VVECTOR 7 15
SWIDTH1 0 -1286
DWIDTH1 0 -18
BITMAP 
FFFC
0CC0
0CC0
0CC0
0CC0
0CC0
0CC0
0CC0
0CC0
ENDCHAR
STARTCHAR SF490000
ENCODING 270
SWIDTH 600 0
DWIDTH 14 0
BBX 10 10 4 5
VVECTOR 11 15
SWIDTH1 0 -1286
DWIDTH1 0 -18
BITMAP 
CC00
CC00
CC00
CC00
CC00
CC00
CC00
CC00
CC00
FFC0
ENDCHAR
STARTCHAR SF500000
ENCODING 271
SWIDTH 600 0
DWIDTH 14 0
BBX 8 11 6 4
VVECTOR 13 15
SWIDTH1 0 -1286
DWIDTH1 0 -18
BITMAP 
C0
C0
C0
C0
C0
C0
C0
C0
FF
C0
FF
ENDCHAR
STARTCHAR SF510000
ENCODING 272
SWIDTH 600 0
DWIDTH 14 0
BBX 8 10 6 -3
VVECTOR 13 15
SWIDTH1 0 -1286
DWIDTH1 0 -18
BITMAP 
FF
C0
FF
C0
C0
C0
C0
C0
C0
C0
ENDCHAR
STARTCHAR SF520000
ENCODING 273
SWIDTH 600 0
DWIDTH 14 0
BBX 10 9 4 -3
VVECTOR 11 15
SWIDTH1 0 -1286
DWIDTH1 0 -18
BITMAP 
FFC0
CC00
CC00
CC00
CC00
CC00
CC00
CC00
CC00
ENDCHAR
STARTCHAR SF530000
ENCODING 274
SWIDTH 600 0
DWIDTH 14 0
BBX 14 18 0 -3
VVECTOR 7 15
SWIDTH1 0 -1286
DWIDTH1 0 -18
BITMAP 
0CC0
0CC0
0CC0
0CC0
0CC0
0CC0
0CC0
0CC0
0CC0
FFFC
0CC0
0CC0
0CC0
0CC0
0CC0
0CC0
0CC0
0CC0
ENDCHAR
STARTCHAR SF540000
ENCODING 275
SWIDTH 600 0
DWIDTH 14 0
BBX 14 18 0 -3
VVECTOR 7 15
SWIDTH1 0 -1286
DWIDTH1 0 -18
BITMAP 
0300
0300
0300
0300
0300
0300
0300
0300
FFFC
0300
FFFC
0300
0300
0300
0300
0300
0300
0300
ENDCHAR
STARTCHAR lfblock
ENCODING 276
SWIDTH 600 0
DWIDTH 14 0
BBX 7 18 0 -3
VVECTOR 0 15
SWIDTH1 0 -1286
DWIDTH1 0 -18
BITMAP 
FE
FE
FE
FE
FE
FE
FE
FE
FE
FE
FE
FE
FE
FE
FE
FE
FE
FE
ENDCHAR
STARTCHAR rtblock
ENCODING 277
SWIDTH 600 0
DWIDTH 14 0
BBX 7 18 7 -3
VVECTOR 14 15
SWIDTH1 0 -1286
DWIDTH1 0 -18
BITMAP 
FE
FE
FE
FE
FE
FE
FE
FE
FE
FE
FE
FE
FE
FE
FE
FE
FE
FE
ENDCHAR
STARTCHAR alpha
ENCODING 278
SWIDTH 643 0
DWIDTH 15 0
BBX 13 8 1 0
VVECTOR 8 15
SWIDTH1 0 -1286
DWIDTH1 0 -18
BITMAP 
3E18
6330
C1E0
C0C0
C0C0
C1E0
6330
3E18
ENDCHAR
STARTCHAR Gamma
ENCODING 279
SWIDTH 557 0
DWIDTH 13 0
BBX 10 11 2 0
VVECTOR 8 15
SWIDTH1 0 -1286
DWIDTH1 0 -18
BITMAP 
FFC0
C000
C000
C000
C000
C000
C000
C000
C000
C000
C000
ENDCHAR
STARTCHAR pi
ENCODING 280
SWIDTH 600 0
DWIDTH 14 0
BBX 13 8 0 0
VVECTOR 6 15
SWIDTH1 0 -1286
DWIDTH1 0 -18
BITMAP 
FFF8
3060
3060
3060
3060
3060
3060
3060
ENDCHAR
STARTCHAR Sigma
ENCODING 281
SWIDTH 600 0
DWIDTH 14 0
BBX 12 11 1 0
VVECTOR 7 15
SWIDTH1 0 -1286
DWIDTH1 0 -18
BITMAP 
FFF0
6000
3000
1800
0C00
0600
0C00
1800
3000
6000
FFF0
ENDCHAR
STARTCHAR sigma
ENCODING 282
SWIDTH 557 0
DWIDTH 13 0
BBX 12 8 1 0
VVECTOR 8 15
SWIDTH1 0 -1286
DWIDTH1 0 -18
BITMAP 
3FF0
60C0
C060
C060
C060
C060
60C0
3F80
ENDCHAR
STARTCHAR tau
ENCODING 283
SWIDTH 429 0
DWIDTH 10 0
BBX 10 8 0 0
VVECTOR 5 15
SWIDTH1 0 -1286
DWIDTH1 0 -18
BITMAP 
FFC0
0C00
0C00
0C00
0C00
0C00
0C00
0C00
ENDCHAR
STARTCHAR Phi
ENCODING 284
SWIDTH 686 0
DWIDTH 16 0
BBX 14 10 1 0
VVECTOR 8 15
SWIDTH1 0 -1286
DWIDTH1 0 -18
BITMAP 
0300
1FE0
6318
C30C
C30C
C30C
C30C
6318
1FE0
0300
ENDCHAR
STARTCHAR Theta
ENCODING 285
SWIDTH 771 0
DWIDTH 18 0
BBX 16 11 1 0
VVECTOR 9 15
SWIDTH1 0 -1286
DWIDTH1 0 -18
BITMAP 
0FF0
381C
6006
C003
C003
CFF3
C003
C003
6006
381C
0FF0
ENDCHAR
STARTCHAR uni03A9
ENCODING 286
SWIDTH 729 0
DWIDTH 17 0
BBX 15 11 1 0
VVECTOR 9 15
SWIDTH1 0 -1286
DWIDTH1 0 -18
BITMAP 
0FE0
3838
600C
C006
C006
C006
C006
600C
3018
1830
FC7E
ENDCHAR
STARTCHAR delta
ENCODING 287
SWIDTH 643 0
DWIDTH 15 0
BBX 11 11 2 0
VVECTOR 8 15
SWIDTH1 0 -1286
DWIDTH1 0 -18
BITMAP 
7FC0
7000
1800
0E00
3F80
60C0
C060
C060
C060
60C0
3F80
ENDCHAR
STARTCHAR infinity
ENCODING 288
SWIDTH 771 0
DWIDTH 18 0
BBX 16 5 1 3
VVECTOR 9 15
SWIDTH1 0 -1286
DWIDTH1 0 -18
BITMAP 
7C3E
C663
C3C3
C663
7C3E
ENDCHAR
STARTCHAR phi1
ENCODING 289
SWIDTH 686 0
DWIDTH 16 0
BBX 14 14 1 -1
VVECTOR 8 15
SWIDTH1 0 -1286
DWIDTH1 0 -18
BITMAP 
0300
0300
0300
1FE0
7338
C30C
C30C
C30C
C30C
7338
1FE0
0300
0300
0300
ENDCHAR
STARTCHAR epsilon
ENCODING 290
SWIDTH 514 0
DWIDTH 12 0
BBX 10 8 1 0
VVECTOR 6 15
SWIDTH1 0 -1286
DWIDTH1 0 -18
BITMAP 
3F00
6180
C0C0
7C00
4000
C0C0
6180
3F00
ENDCHAR
STARTCHAR intersection
ENCODING 291
SWIDTH 643 0
DWIDTH 15 0
BBX 11 11 2 0
VVECTOR 8 15
SWIDTH1 0 -1286
DWIDTH1 0 -18
BITMAP 
1F00
3180
60C0
C060
C060
C060
C060
C060
C060
C060
C060
ENDCHAR
STARTCHAR equivalence
ENCODING 292
SWIDTH 600 0
DWIDTH 14 0
BBX 12 5 1 3
VVECTOR 7 15
SWIDTH1 0 -1286
DWIDTH1 0 -18
BITMAP 
FFF0
0000
FFF0
0000
FFF0
ENDCHAR
STARTCHAR greaterequal
ENCODING 293
SWIDTH 557 0
DWIDTH 13 0
BBX 11 8 1 0
VVECTOR 7 15
SWIDTH1 0 -1286
DWIDTH1 0 -18
BITMAP 
F000
0F00
00E0
0F00
F000
0000
0000
FFE0
ENDCHAR
STARTCHAR lessequal
ENCODING 294
SWIDTH 557 0
DWIDTH 13 0
BBX 11 8 1 0
VVECTOR 7 15
SWIDTH1 0 -1286
DWIDTH1 0 -18
BITMAP 
01E0
1E00
E000
1E00
01E0
0000
0000
FFE0
ENDCHAR
STARTCHAR integraltp
ENCODING 295
SWIDTH 771 0
DWIDTH 18 0
BBX 7 15 8 -3
VVECTOR 14 15
SWIDTH1 0 -1286
DWIDTH1 0 -18
BITMAP 
3C
7E
DC
C0
C0
C0
C0
C0
C0
C0
C0
C0
C0
C0
C0
ENDCHAR
STARTCHAR integralbt
ENCODING 296
SWIDTH 771 0
DWIDTH 18 0
BBX 7 15 3 -1
VVECTOR 4 15
SWIDTH1 0 -1286
DWIDTH1 0 -18
BITMAP 
06
06
06
06
06
06
06
06
06
06
06
06
76
FC
78
ENDCHAR
STARTCHAR approxequal
ENCODING 297
SWIDTH 514 0
DWIDTH 12 0
BBX 10 5 1 2
VVECTOR 6 15
SWIDTH1 0 -1286
DWIDTH1 0 -18
BITMAP 
38C0
C700
0000
38C0
C700
ENDCHAR
STARTCHAR uni2219
ENCODING 298
SWIDTH 557 0
DWIDTH 13 0
BBX 3 3 5 4
VVECTOR 7 15
SWIDTH1 0 -1286
DWIDTH1 0 -18
BITMAP 
E0
E0
E0
ENDCHAR
STARTCHAR radical
ENCODING 299
SWIDTH 600 0
DWIDTH 14 0
BBX 14 11 0 0
VVECTOR 7 15
SWIDTH1 0 -1286
DWIDTH1 0 -18
BITMAP 
007C
00C0
00C0
0180
0180
0300
E300
3600
1E00
0C00
0C00
ENDCHAR
STARTCHAR uni207F
ENCODING 300
SWIDTH 386 0
DWIDTH 9 0
BBX 7 6 1 5
VVECTOR 5 15
SWIDTH1 0 -1286
DWIDTH1 0 -18
BITMAP 
DC
E6
C6
C6
C6
C6
ENDCHAR
STARTCHAR uni02C9
ENCODING 301
SWIDTH 343 0
DWIDTH 8 0
BBX 7 1 0 13
VVECTOR 3 15
SWIDTH1 0 -1286
DWIDTH1 0 -18
BITMAP 
FE
ENDCHAR
STARTCHAR breve
ENCODING 302
SWIDTH 343 0
DWIDTH 8 0
BBX 7 3 0 12
VVECTOR 3 15
SWIDTH1 0 -1286
DWIDTH1 0 -18
BITMAP 
82
44
38
ENDCHAR
STARTCHAR dotaccent
ENCODING 303
SWIDTH 343 0
DWIDTH 8 0
BBX 2 2 3 12
VVECTOR 4 15
SWIDTH1 0 -1286
DWIDTH1 0 -18
BITMAP 
C0
C0
ENDCHAR
STARTCHAR ring
ENCODING 304
SWIDTH 343 0
DWIDTH 8 0
BBX 6 4 1 11
VVECTOR 4 15
SWIDTH1 0 -1286
DWIDTH1 0 -18
BITMAP 
78
CC
CC
78
ENDCHAR
STARTCHAR hungarumlaut
ENCODING 305
SWIDTH 343 0
DWIDTH 8 0
BBX 6 3 1 12
VVECTOR 4 15
SWIDTH1 0 -1286
DWIDTH1 0 -18
BITMAP 
24
48
90
ENDCHAR
STARTCHAR ogonek
ENCODING 306
SWIDTH 343 0
DWIDTH 8 0
BBX 4 2 2 -2
VVECTOR 4 15
SWIDTH1 0 -1286
DWIDTH1 0 -18
BITMAP 
C0
70
ENDCHAR
STARTCHAR caron
ENCODING 307
SWIDTH 343 0
DWIDTH 8 0
BBX 7 3 0 12
VVECTOR 3 15
SWIDTH1 0 -1286
DWIDTH1 0 -18
BITMAP 
C6
6C
38
ENDCHAR
STARTCHAR quoteleft
ENCODING 308
SWIDTH 214 0
DWIDTH 5 0
BBX 2 4 1 7
VVECTOR 2 15
SWIDTH1 0 -1286
DWIDTH1 0 -18
BITMAP 
40
80
C0
C0
ENDCHAR
STARTCHAR quoteright
ENCODING 309
SWIDTH 214 0
DWIDTH 5 0
BBX 2 4 1 7
VVECTOR 2 15
SWIDTH1 0 -1286
DWIDTH1 0 -18
BITMAP 
C0
C0
40
80
ENDCHAR
STARTCHAR quotedblleft
ENCODING 310
SWIDTH 343 0
DWIDTH 8 0
BBX 6 4 1 7
VVECTOR 4 15
SWIDTH1 0 -1286
DWIDTH1 0 -18
BITMAP 
44
88
CC
CC
ENDCHAR
STARTCHAR quotedblright
ENCODING 311
SWIDTH 343 0
DWIDTH 8 0
BBX 6 4 1 7
VVECTOR 4 15
SWIDTH1 0 -1286
DWIDTH1 0 -18
BITMAP 
CC
CC
44
88
ENDCHAR
STARTCHAR endash
ENCODING 312
SWIDTH 557 0
DWIDTH 13 0
BBX 10 1 1 4
VVECTOR 6 15
SWIDTH1 0 -1286
DWIDTH1 0 -18
BITMAP 
FFC0
ENDCHAR
STARTCHAR emdash
ENCODING 313
SWIDTH 986 0
DWIDTH 23 0
BBX 16 1 3 4
VVECTOR 11 15
SWIDTH1 0 -1286
DWIDTH1 0 -18
BITMAP 
FFFF
ENDCHAR
STARTCHAR uniFFE5
ENCODING 314
SWIDTH 471 0
DWIDTH 11 0
BBX 9 4 1 10
VVECTOR 6 15
SWIDTH1 0 -1286
DWIDTH1 0 -18
BITMAP 
1C00
3600
6300
C180
ENDCHAR
STARTCHAR dotlessi
ENCODING 315
SWIDTH 557 0
DWIDTH 13 0
BBX 11 3 1 11
VVECTOR 7 15
SWIDTH1 0 -1286
DWIDTH1 0 -18
BITMAP 
3C20
4E40
8780
ENDCHAR
STARTCHAR quotesinglbase
ENCODING 316
SWIDTH 214 0
DWIDTH 5 0
BBX 2 4 2 -2
VVECTOR 4 15
SWIDTH1 0 -1286
DWIDTH1 0 -18
BITMAP 
C0
C0
40
80
ENDCHAR
STARTCHAR quotedblbase
ENCODING 317
SWIDTH 343 0
DWIDTH 8 0
BBX 6 4 1 -2
VVECTOR 4 15
SWIDTH1 0 -1286
DWIDTH1 0 -18
BITMAP 
CC
CC
44
88
ENDCHAR
STARTCHAR ellipsis
ENCODING 318
SWIDTH 986 0
DWIDTH 23 0
BBX 18 2 3 0
VVECTOR 13 15
SWIDTH1 0 -1286
DWIDTH1 0 -18
BITMAP 
C0C0C0
C0C0C0
ENDCHAR
STARTCHAR dagger
ENCODING 319
SWIDTH 514 0
DWIDTH 12 0
BBX 10 14 1 0
VVECTOR 6 15
SWIDTH1 0 -1286
DWIDTH1 0 -18
BITMAP 
0C00
0C00
0C00
FFC0
0C00
0C00
0C00
0C00
0C00
0C00
0C00
0C00
0C00
0C00
ENDCHAR
STARTCHAR daggerdbl
ENCODING 320
SWIDTH 514 0
DWIDTH 12 0
BBX 10 14 1 0
VVECTOR 6 15
SWIDTH1 0 -1286
DWIDTH1 0 -18
BITMAP 
0C00
0C00
0C00
FFC0
0C00
0C00
0C00
0C00
FFC0
0C00
0C00
0C00
0C00
0C00
ENDCHAR
STARTCHAR circumflex
ENCODING 321
SWIDTH 471 0
DWIDTH 11 0
BBX 7 3 2 9
VVECTOR 6 15
SWIDTH1 0 -1286
DWIDTH1 0 -18
BITMAP 
38
6C
C6
ENDCHAR
STARTCHAR perthousand
ENCODING 322
SWIDTH 986 0
DWIDTH 23 0
BBX 23 11 0 0
VVECTOR 12 15
SWIDTH1 0 -1286
DWIDTH1 0 -18
BITMAP 
7C0600
C60C00
C61800
C63000
7C6000
01C000
031F7C
0631C6
0C31C6
1831C6
301F7C
ENDCHAR
STARTCHAR Scaron
ENCODING 323
SWIDTH 643 0
DWIDTH 15 0
BBX 13 15 1 0
VVECTOR 8 15
SWIDTH1 0 -1286
DWIDTH1 0 -18
BITMAP 
0CC0
0780
0300
0000
1FC0
7070
C018
C000
7800
0F80
00F0
0018
C018
7070
1FC0
ENDCHAR
STARTCHAR guilsinglleft
ENCODING 324
SWIDTH 343 0
DWIDTH 8 0
BBX 4 5 2 2
VVECTOR 4 15
SWIDTH1 0 -1286
DWIDTH1 0 -18
BITMAP 
30
60
C0
60
30
ENDCHAR
STARTCHAR OE
ENCODING 325
SWIDTH 986 0
DWIDTH 23 0
BBX 22 11 1 0
VVECTOR 13 15
SWIDTH1 0 -1286
DWIDTH1 0 -18
BITMAP 
0FCFFC
387C00
601C00
C00C00
C00C00
C00FF8
C00C00
C00C00
601C00
387C00
0FCFFC
ENDCHAR
STARTCHAR tilde
ENCODING 326
SWIDTH 471 0
DWIDTH 11 0
BBX 8 3 2 9
VVECTOR 7 15
SWIDTH1 0 -1286
DWIDTH1 0 -18
BITMAP 
33
7E
CC
ENDCHAR
STARTCHAR trademark
ENCODING 327
SWIDTH 986 0
DWIDTH 23 0
BBX 23 6 0 5
VVECTOR 12 15
SWIDTH1 0 -1286
DWIDTH1 0 -18
BITMAP 
FFCF1E
0C0D16
0C0DB6
0C0CA6
0C0CE6
0C0C46
ENDCHAR
STARTCHAR scaron
ENCODING 328
SWIDTH 471 0
DWIDTH 11 0
BBX 9 12 1 0
VVECTOR 6 15
SWIDTH1 0 -1286
DWIDTH1 0 -18
BITMAP 
6600
3C00
1800
0000
7F00
C180
C000
7800
0F00
0180
C180
7F00
ENDCHAR
STARTCHAR guilsinglright
ENCODING 329
SWIDTH 343 0
DWIDTH 8 0
BBX 4 5 2 2
VVECTOR 4 15
SWIDTH1 0 -1286
DWIDTH1 0 -18
BITMAP 
C0
60
30
60
C0
ENDCHAR
STARTCHAR oe
ENCODING 330
SWIDTH 900 0
DWIDTH 21 0
BBX 21 8 0 0
VVECTOR 11 15
SWIDTH1 0 -1286
DWIDTH1 0 -18
BITMAP 
1F8FE0
60D830
C06018
C07FF8
C06000
C06000
60D818
1F8FF0
ENDCHAR
ENDFONT
